<svg xmlns="http://www.w3.org/2000/svg" width="1024" height="1024" fill="none"><mask id="a" width="1024" height="1024" x="0" y="0" maskUnits="userSpaceOnUse" style="mask-type:alpha"><circle cx="512" cy="512" r="512" fill="#000"/></mask><g mask="url(#a)"><path fill="url(#b)" d="M-.297-5.286h1024v1024h-1024z"/><path fill="#DEEBFF" d="m702.792 74.969 1.777 2.757c-3.246 3.749-5.496.308-1.777-2.757Z"/><path fill="#C8D5EE" d="M645.933 147.75c5.094 4.587-4.17 5.778-.592.551l.592-.551ZM733.593 108.053c3.672.199 1.777 5.955-1.777 1.654.711-.507 1.517-1.676 1.777-1.654Z"/><path fill="#DEEBFF" d="M757.285 73.865c3.672.199 1.777 5.955-1.777 1.655.711-.508 1.516-1.676 1.777-1.654Z"/><path fill="#DBF8FF" d="M617.007 246.618c-11.056 4.618-9.995 10.279-10.755 10.496-2.206.646-3.424-7.449-13.162-4.704-1.939-1.655 7.374-4.434.453-15.867 10.582 4.542 13.199-4.258 15.845-2.773.958.545-2.71 7.991 7.619 12.848ZM983.007 67.618c-11.056 4.618-9.995 10.279-10.755 10.497-2.206.645-3.424-7.45-13.162-4.705-1.939-1.655 7.374-4.434.453-15.867 10.582 4.542 13.199-4.258 15.845-2.773.958.545-2.71 7.99 7.619 12.848ZM881.046 317.68c.639 1.19-4.433 8.994-5.037 9.166-.853.235-2.831-3.307-10.064-3.598 6.37-10.596-5.762-6.193 9.743-12.545 2.629 8.009 5.125 6.556 5.358 6.977Z"/><path fill="#DEEBFF" d="m731.628 306.891-1.847 2.714c-4.931-1.206-2.639-4.622 1.847-2.714ZM698.293 404.647c-2.161 6.364-7.243-1.138-.774-.277l.774.277Z"/><path fill="#C8D5EE" d="M638.54 288.799c-2.162 6.364-7.244-1.139-.775-.277l.775.277ZM713.505 347.656c1.38 3.261-4.871 4.08-2.323-.83.783.398 2.232.595 2.323.83Z"/><path fill="#DEEBFF" d="M755.942 353.545c1.381 3.26-4.871 4.079-2.323-.831.784.398 2.233.596 2.323.831ZM796.929 145l1.777 2.757c-3.246 3.749-5.497.309-1.777-2.757ZM834.437 224c5.094 4.587-4.17 5.778-.592.551l.592-.551Z"/><path fill="#C8D5EE" d="M755.437 250c5.094 4.587-4.17 5.778-.592.551l.592-.551ZM877.777 171c3.672.199 1.777 5.955-1.777 1.654.711-.507 1.516-1.676 1.777-1.654Z"/><path fill="#DEEBFF" d="m811.601 415.866-1.847 2.714c-4.931-1.205-2.64-4.621 1.847-2.714Z"/><path fill="#C8D5EE" d="M718.508 397.774c-2.161 6.364-7.243-1.138-.774-.277l.774.277ZM793.473 456.632c1.381 3.26-4.871 4.079-2.322-.831.783.398 2.232.596 2.322.831Z"/><path fill="#DEEBFF" d="M835.915 462.52c1.38 3.261-4.871 4.08-2.323-.83.783.398 2.232.595 2.323.83Z"/><path fill="#DBF8FF" d="M89.674 331.998c-10.04-5.649-14.01-1.752-14.62-2.195-1.78-1.279 4.069-6.631-3.705-12.333.23-2.346 7.79 3.024 13.082-8.386 2.366 10.333 10.971 7.434 11.28 10.21.106 1.009-8.004 2.385-6.037 12.704Z"/><path fill="#DEEBFF" d="m343.126 342.027-3.248.124c-1.838-4.314 2.23-4.495 3.248-.124Z"/><path fill="#C8D5EE" d="M292.643 241.144c-6.377 1.897-3.213-5.99-.218-.725l.218.725Z"/><path fill="#DEEBFF" d="m107.407 202.992-1.559-2.725c3.312-3.342 5.29.061 1.559 2.725Z"/><path fill="#C8D5EE" d="M206.203 232.59c-4.645-4.674 4.305-5.205.598-.485l-.598.485Z"/><path fill="#DEEBFF" d="M62.295 373.664c-6.377 1.897-3.213-5.99-.218-.725l.218.725Z"/><path fill="#C8D5EE" d="M135.221 282.098c-6.377 1.897-3.213-5.99-.218-.725l.218.725ZM167.038 363.603c-1.847 2.815-6.076-1.365-.654-2.176.125.799.792 1.98.654 2.176Z"/><path fill="#DEEBFF" d="m503.826 2.779-2.903 1.668c-3.883-3.147-.26-5.26 2.903-1.668Z"/><path fill="#C8D5EE" d="M544.886 45.86c-.249 3.51-6.246 1.632-1.709-1.719.522.686 1.735 1.47 1.709 1.718Z"/><path fill="#DEEBFF" d="M580.358 78.905c-.249 3.51-6.245 1.632-1.709-1.718.523.686 1.735 1.47 1.709 1.718Z"/><path fill="#DBF8FF" d="M442.349 43.35c-1.251.597-9.353-4.342-9.526-4.921-.236-.819 3.489-2.671 3.875-9.586 11.006 6.213 6.54-5.44 13.006 9.461-8.403 2.424-6.912 4.827-7.355 5.045Z"/><path fill="#DEEBFF" d="m340.028 26.73-2.817-1.798c1.317-4.702 4.862-2.472 2.817 1.798ZM287.978 74.456c-3.424 1.284-4.21-4.705.895-2.212-.425.745-.648 2.128-.895 2.212ZM132.92 131.374c-3.425 1.283-4.21-4.705.894-2.212-.425.744-.648 2.128-.894 2.212ZM126.92 16.374c-3.425 1.283-4.21-4.705.894-2.212-.425.744-.648 2.128-.894 2.212ZM80.92 253.374c-3.425 1.283-4.21-4.705.894-2.212-.425.744-.648 2.128-.894 2.212ZM222.886 134.134c-4.854 4.819-5.994-4.054-.57-.573l.57.573Z"/><path fill="#C8D5EE" d="M389.542 77.826c-4.853 4.82-5.994-4.054-.569-.573l.569.573ZM430.05 131.11c-.249 3.509-6.246 1.631-1.709-1.719.522.686 1.735 1.47 1.709 1.719Z"/><path fill="#DEEBFF" d="m283.231 153.479-2.816-1.797c1.316-4.702 4.861-2.472 2.816 1.797ZM451.646 233.49l3.116-1.266c3.388 3.633-.507 5.244-3.116 1.266ZM664.349 210.177c5.508-4.126 5.346 4.812.481.643l-.481-.643Z"/><path fill="#C8D5EE" d="M536.475 236.342c.757-3.442 6.422-.784 1.442 1.929-.417-.748-1.504-1.686-1.442-1.929Z"/><path fill="#DEEBFF" d="M504.701 207.799c.758-3.443 6.423-.785 1.443 1.929-.418-.749-1.505-1.686-1.443-1.929ZM21.967 12.595c.757-3.442 6.422-.784 1.442 1.93-.417-.75-1.504-1.687-1.442-1.93ZM34.967 26.595c.757-3.443 6.422-.785 1.442 1.929-.417-.749-1.504-1.686-1.442-1.93ZM22.967 257.595c.757-3.443 6.422-.785 1.442 1.929-.417-.749-1.504-1.686-1.442-1.929ZM359.784 234.898c-1.549-6.526 6.832-2.568.813-.141l-.813.141ZM90.999 69.857c-1.549-6.525 6.832-2.568.813-.141l-.813.141ZM914.003 156.856c-1.549-6.525 6.832-2.568.813-.141l-.813.141ZM494.896 127.376l3.116-1.265c3.388 3.633-.507 5.244-3.116 1.265Z"/><path fill="#C8D5EE" d="M561.572 192.087c5.508-4.126 5.345 4.812.48.643l-.48-.643ZM77.915 15.196c5.508-4.126 5.346 4.812.481.643l-.48-.643ZM533.725 103.229c.757-3.442 6.422-.784 1.442 1.929-.417-.748-1.504-1.686-1.442-1.929Z"/><path fill="#DEEBFF" d="M161.971 425.595c.757-3.443 6.422-.785 1.442 1.929-.417-.749-1.504-1.686-1.442-1.929Z"/><path fill="#C8D5EE" d="M858.772 126.745c-.219 6.688-7.288.839-.824-.06l.824.06ZM56.603 155.557c-1.639 3.149-6.422-.788-.888-2.215.207.825 1.012 1.994.888 2.215Z"/><path fill="#DEEBFF" d="M219.603 63.556c-1.639 3.15-6.422-.787-.888-2.214.207.825 1.012 1.994.888 2.214Z"/><path fill="#C8D5EE" d="M910.449 265.835c-6.417 2.667-3.907-5.944-.296-.738l.296.738ZM891.502 394.316c-1.64 3.149-6.422-.787-.888-2.214.207.825 1.012 1.994.888 2.214Z"/><path fill="#DEEBFF" d="M918.998 450.626c-1.64 3.149-6.422-.788-.888-2.214.207.825 1.012 1.994.888 2.214ZM636.242 35.248l-.982 3.1c-5.087.157-3.883-3.734.982-3.1ZM230.422 17.097l-.982 3.1c-5.087.157-3.883-3.735.982-3.1ZM798.698 283.896c-.219 6.688-7.288.84-.824-.059l.824.059ZM924.772 84.744c-.219 6.689-7.288.84-.824-.06l.824.06Z"/><path fill="#C8D5EE" d="M970.936 342.97c-.219 6.689-7.288.84-.824-.059l.824.059Z"/><path fill="#DEEBFF" d="M922.481 200.679c6.88 1.213-.228 7.017-.185.77l.185-.77ZM981.911 257.527c6.88 1.213-.228 7.018-.185.771l.185-.771ZM923.907 45.527c6.88 1.213-.228 7.018-.185.77l.185-.77ZM800.907 75.528c6.88 1.213-.228 7.017-.185.77l.185-.77ZM996.911 85.527c6.879 1.213-.228 7.018-.185.77l.185-.77ZM948.911 29.527c6.88 1.213-.228 7.018-.185.77l.185-.77ZM843.911 24.527c6.88 1.213-.228 7.018-.185.77l.185-.77ZM555.911 134.527c6.88 1.213-.228 7.018-.185.771l.185-.771ZM1015.91 2.527c6.88 1.213-.23 7.018-.18.77l.18-.77ZM981.907 145.527c6.88 1.213-.228 7.018-.185.771l.185-.771ZM773.911 22.527c6.88 1.213-.228 7.018-.185.77l.185-.77ZM634.184 361.669c1.376-3.263 6.467.303 1.067 2.14-.274-.806-1.172-1.912-1.067-2.14ZM230.487 447.754c1.085-3.361 6.47-.215 1.25 2.048-.343-.782-1.335-1.811-1.25-2.048ZM218.488 498.605l3.225-.986c3.024 3.916-1.01 5.177-3.225.986Z"/><path fill="url(#c)" stroke="#F2F1D2" d="m887.942 984.471-1.883.971c-16.734 8.636-21.624 30.278-10.227 45.268h-469.77V865.226a86.34 86.34 0 0 0-12.204-44.255l-.897-1.502a82.074 82.074 0 0 1-9.241-61.611c11.826-48.244 63.459-75.008 109.699-56.862l17.037 6.686 5.676-2.854c38.813-19.512 85.692 2.105 96.054 44.293 50.385-31.385 116.84-12.834 143.684 40.11l12.373 24.402 11.186-1.731c63.644-9.847 115.57 50.437 96.403 111.92l3.133.569c30.134 5.477 36.194 46.034 8.977 60.08Z"/><path fill="#DBF8FF" d="M644.881 79.714c-.349 11.535 5.346 13.035 5.23 13.785-.326 2.183-8.345-.22-9.88 9.373-2.347.971-1.022-8.27-14.528-7.168 8.647-7.212 1.581-13.233 4.068-14.887.907-.595 6.276 5.757 15.11-1.103Z"/><path fill="url(#d)" stroke="#EDE9CE" d="m-2.51 442.067-.848.398a68.469 68.469 0 0 0-25.672 20.894l-1.665 2.219a79.6 79.6 0 0 0-8.483 81.354l10.916 23.451a122.79 122.79 0 0 1 11.132 42.696l10.716 143.796c5.141 68.989 62.615 122.339 131.796 122.339 47.76 0 91.806-25.768 115.208-67.403l40.003-71.169a30.157 30.157 0 0 0 .294-29.017 30.156 30.156 0 0 1-.667-27.158l6.702-14.14c13.254-27.96 3.365-61.414-22.961-77.674a60.724 60.724 0 0 1-27.346-38.394l-2.429-10.845c-11.243-50.208-63.324-79.785-112.204-63.721l-15.279 5.021a16.361 16.361 0 0 1-18.158-7.727l-6.788-11.824a34.408 34.408 0 0 0-6.295-7.959l-3.555-3.336C51.86 435.06 22.37 430.384-2.51 442.067Z"/><path fill="url(#e)" stroke="#EDE9CE" d="m935.454 603.895-5.634-35.911c-9.335-59.495 36.66-113.27 96.88-113.27v563.996H680.652l-43.723-31.081c-43.475-30.91-38.178-97.044 9.664-120.639l6.228-3.072c24.791-12.227 38.348-39.52 33.112-66.662l-2.095-10.86c-5.562-28.833 14.33-56.389 43.448-60.186a50.963 50.963 0 0 0 21.166-7.795l39.431-25.608a46.737 46.737 0 0 1 33.773-6.796l6.206 1.122c16.673 3.014 33.344-5.288 40.984-20.41a38.28 38.28 0 0 1 22.86-19.311l20.579-6.365a33.462 33.462 0 0 0 23.169-37.152Z"/><path fill="#49204F" d="M284.078 346.714h180v149h-180z"/><path fill="#49204F" d="M444.078 447.714h363v244h-363z"/><path fill="#49204F" d="m661.539 466.792 35.534-7.458 58.54 278.922-35.534 7.458z"/><path fill="#DC89B0" d="M159.882 566.733c-1.021 4.394-2.057 8.772-3.077 13.166-.278.355-.804.71-.789 1.049.325 11.84-.123 23.788 1.253 35.521 2.319 19.888 9.293 38.157 23.008 53.266 4.283 4.717 13.775 10.151 20.872 12.479-.572-2.682-3.671-5.418-3.903-7.5-.216-2.05-1.166-3.934-1.166-6 19.205 45.527 54.318 66.687 103.489 65.5-1.654-4.779-5.734-8.546-7.095-12.416.526-.247.569-.337 1.095-.584 8.319 15.895 21.032 27.333 37.592 34.162.974.37 1.918.833 2.907 1.11 9.757 2.806 22.255 5.938 32.012 8.728-.603-2.975.603-5.752 0-8.728-.232-.955-.753-1.816-1-2.772-.093-.277 3.447 1.03-1.5-1-.185-.308 2.686-.221 2.5-.529-.123-1.218-1.374-1.253-1.498-2.471-.124-.061 3.663-.191 1.498-1.5.712-.691-1.513-.592-1.498-.808-.108-.648-.392-1.544-.5-2.192.5-1-.743-1.207-.728-1.5-.278-2.158.279-2.326 0-4.5l1.228-3c.062-12.935 2.162-25.08 1.992-38-.123-9.049-9.08-18.52-9.497-27.57l.092-4.07.016-.015c-1.268-.262-2.536-.524-3.804-.771-.031 5.658-.186 11.316-.031 16.974.093 2.898-.789 4.456-3.711 5.288-6.154 1.742-12.154 4.039-18.323 5.704-14.241 3.824-28.235 5.489-42.167-2.096-16.003-8.711-22.77-22.63-24.069-39.944-.974-12.981 4.258-24.492 11-35.5.51-.832.211-3.372 1-5.5-3.634 3.623-6.826 7.928-9.717 10.087-3.124 2.328-6.758 3.962-10.206 5.843-3.324 1.819-6.587 3.87-10.097 5.257-8.968 3.561-17.89 1.172-26.348-1.65-6.015-1.988-10.7-6.721-15.71-10.714-4.763-3.793-6.773-9.436-11.365-13.382-4.546-3.916-7.639-9.729-10.654-15.109-2.598-4.625-4.716-9.667-6.092-14.785-2.103-7.817-5.536-15.448-4.221-23.943.34-2.158-.526-4.517-.851-6.783-1.191 1.742-2.52 3.422-3.525 5.257-2.876 5.288-5.613 10.638-8.412 15.972v-.031ZM227.952 504.985c.249.723.483 1.461.731 2.183 6.174.354 12.379.553 18.521 1.153 1.587.154 3.033 1.599 4.541 2.46.607-.339 1.571-.538 1.773-1.046 5.427-12.974 17.277-18.385 29.251-22.351 10.45-3.459 21.849-2.321 32.579.43 9.859 2.537 19.438 6.149 29.142 9.285 1.477-.307 2.955-.599 4.432-.907l.062-2.751-.14-4.535c0-.63.031-1.261.031-1.891-.233-.907-.466-1.814-.715-2.721-.637-1.752 19.358-9.856 19.42-11.578.234-6.118-25.049-2.195-29.777-4.194-12.596-5.334-25.985-9.392-34.274-21.46-.808-1.183-1.547-3.225-2.449-4.348-1 0-3.5.626-4.5.95-6.127 1.983-6.873 1.084-13 3.052-.638.154-2.362.846-3 1h-3c-.622.154-1.878.346-2.5.5h-2.5c-2 0-4.862.015-5.5 0-6.034-.83-8.951-1.67-15-2.5-3.825 5.749-10 13.5-13.5 21.5-3.654 11.468-7.175 22.105-7.564 34.495-.031 1.122-2.006 2.198-3.079 3.29l.015-.016Z"/><path fill="#FACBBC" d="M586.285 341.797c-15.927-.145-31.174 2.71-45.542 9.582 15.71-.709 30.742-4.678 45.542-9.582ZM579.299 316.719c-14.819 5.838-27.883 14.203-38.626 25.962 14.298-6.549 26.745-15.865 38.626-25.962Z"/><path fill="#49204F" d="M254.578 445.714c-.977-.921-2.039-.563-3-1.5-15.5 13.5-23.208 44.117-23 57.515 0 1.013-.84 2.972-1 3.985 1.105-1.089 3.468-2.849 3.5-3.985.23-6.83 2.023-15.141 4.516-23.138 3.799-12.188 11.009-22.908 18.984-32.877ZM396.923 259.097c.799-.808 1.598-1.59 2.397-2.397a200.63 200.63 0 0 0-2.397 2.397Z"/><path fill="#F5B0D0" d="M251.57 510.215c-4.36-4.571-11.489-4.562-21-4.5l-2.5-1c-5 3-9.864 5.752-10.5 6-8.998 3.61-14.214 8.271-22.934 12.469-4.716 2.262-8.61 6.228-12.877 9.435-.574.697-1.163 1.395-1.737 2.092-.605.588-1.226 1.177-1.831 1.766-2.203 3.021-4.39 6.042-6.594 9.079.311 2.277 1.18 4.632.854 6.816-1.319 8.552 2.125 16.221 4.235 24.061 1.381 5.143 3.507 10.209 6.113 14.857 3.025 5.407 6.128 11.248 10.689 15.183 4.608 3.981 6.625 9.636 11.403 13.448 5.043 4.028 9.728 8.768 15.763 10.767 8.502 2.82 17.454 5.236 26.437 1.658 3.522-1.395 6.78-3.455 10.131-5.283 3.459-1.89 7.105-3.548 10.239-5.872 2.917-2.169 5.26-5.097 8.905-8.738-.791 2.138-.993 3.161-1.504 4.013-6.765 11.061-11.605 22.944-10.628 35.989 1.303 17.414 9.03 31.187 25.087 39.94 13.978 7.623 28.019 5.934 42.308 2.107 6.19-1.657 12.21-3.981 18.384-5.732 2.948-.837 3.817-2.401 3.724-5.314-.171-5.686 12.302-7.571 12.333-13.241-.978-11.573 1.799-28.093 0-39.527-3.646-23.022-4.003-43.265-4.5-66.473-.295-13.308 18.276-35.677 18.509-49.001.108-6.445-2.498-9.498-7.499-15-.062-1.828-9.501-19.541-15.501-21.5-9.681-3.16-30.172 10.57-40.008 7.998-10.69-2.788-24.574-3.486-35 0-11.931 3.997-24.086 8.927-29.501 22.003-.217.511-.36.852-.5 2l-.5-.5Z"/><path fill="#41184F" d="M280.672 450.854c-1.194.381-2.387.817-3.596 1.198 1.194-.381 2.387-.817 3.596-1.198Z"/><path fill="#D1B9B9" d="M348.984 486.809a99.111 99.111 0 0 0-1.198-2.397c.391.799.781 1.598 1.198 2.397Z"/><path fill="#FDF7D8" d="M556.078 433.278c-3.061-2.569-9.573.79-14.025-2.94-8.596 1.671-19.171 3.761-29.761 5.726-1.129.217-2.381-.232-3.587-.371l-.186-1.687c3.912-1.285 5.071-6.126 9.075-6.792 4.128-.681 8.304-6.476 8.984-10.5.696-4.178 2.271-1.312 3.153-5.46-.047-4.596-.031-9.177-.155-13.759-.046-1.485 0-3.358-.819-4.349-5.303-6.376-4.329-14.548-6.293-21.823-.85-3.188-1.298-5.138-4.87-4.859-.278.34-.556.681-.834 1.006a581.165 581.165 0 0 1-3.85 1.687c-.742-.944-2.134-2.183-2.845-3.73-.618-1.362-.494-3.065-.711-4.628a999.86 999.86 0 0 0 4.746-1.223c-.556-7.506 1.284-15.338-3.695-22.039-.247-.201-.494-.418-.726-.619-.387-.341-.789-.666-1.175-1.006a.777.777 0 0 0-.325-.743c-.479-.511-.943-1.037-1.422-1.548l-.124-.294-1.886-2.074c-4.638-2.941-7.531-7.113-12.169-10.039l-1.5-.5c-.618-.356-.881-1.144-1.5-1.5l-2.5-1c-2.195-1.238-1.789-.38-4-1.618-.263.047-1.299-.541-1.5-.712-.386-.232-.598-.437-1-.67-.263.047-1.314-.298-1.5-.5-.355-.232-.644-.267-1-.5-.278.047-.768-.329-1-.5-.618-.263-.881-.237-1.5-.5-11.611-3.807-22.453-6.833-34.342-9.479-14.285-3.173-28.972-3.575-43.567-1.022-2.056.356-4.143.635-6.215.944-8.58 2.864-17.161 5.742-25.741 8.606-.65 1.006-1.144 2.151-1.964 2.971-5.751 5.758-10.544 12.15-13.203 19.919-2.659 7.77-2.35 15.013 4.236 21.034 2.242 2.058 4.36 4.318 6.169 6.763 2.103 2.864 4.256 5.731 6.127 8.764l.5.5c.5.5 1.5 1 2 1.5 5.21 5.015 10.357 8.212 14.5 14 6.045 8.435 9.346 15.976 9.5 26.5.004.241 0 1 0 2.5-.031.217 0 .5 0 1 .047.341-.046 1.16 0 1.5-.093 1.502-.238 2.697-.33 4.198-.124.913-.046 2.389-.17 3.302.356 1.254.108 2.169.17 3.438.695 12.846 2.628 25.352 7.312 37.501 4.87 12.645 11.518 24.052 20.671 33.988 6.524 7.073 14.347 12.351 22.85 16.839 9.678 5.108 19.551 9.633 30.497 7.234 4.252-.928 9.326-3.246 13.5-4.5 3.989-2.166 7.511-4.333 11.5-6.5.325-.294 1.675-1.721 2-2 4.963-4.503 9.713-7.914 15-12 5.117-3.946 11.043-7.486 16.5-11 1.515-2.337 2.83-4.771 4.5-7 .541-.727 1.088-.535 2-1 2.845-1.872 4.778-4.775 7.623-6.647-.047-.201-.061-.151-.123-.353-1.36-.603-2.706-1.597-4.113-2.062-13.791-4.535-25.711.557-36.687 8.033-8.612 5.866-16.651 12.459-26.839 15.632-8.937 2.786-22.449.681-27.922-5.789 18.197 4.597 28.045 2.74 43.335-7.908 5.226-3.638 10.467-7.368 16.048-10.401 11.193-6.052 22.928-8.528 35.28-3.39h-.015c.618.31 1.237.62 1.871.929.309.248.634.495.943.743.989.913 1.963 1.826 2.953 2.739l-.093-.061c.34.355.665.727 1.005 1.083l-.093-.108c.232.387.464.758.68 1.145a.682.682 0 0 1 .17.696c.356 2.276.712 4.551 1.067 6.81-.108.588-.216 1.161-.325 1.749-.247.387-.494.79-.742 1.176-3.401 3.916-6.802 7.847-10.219 11.763-.742 1.099-1.252 2.507-2.257 3.266-9.632 7.259-19.387 14.347-29.034 21.575-6.71 5.045-13.404 10.122-19.929 15.4-4.236 3.42-4.53 6.16-.015 9.1 5.411 3.514 11.747 9.503 17.931 11.159 8.874 2.368 15.879 2.736 25 4.221.433.078 4.052 1.047 4.5 1 5.674-.588 10.842-.319 16.5-1 7.406-.866 15.28-3.297 22.5-5 7.019-1.656 15.497-3.328 22.5-5 11.997-2.878 22.787-3.739 35-5.38 13.451-1.811 27.451-9.698 36-21.12 3.711-10.462 3.969-22.479 7.679-32.926-1.84-.294-3.679-.588-5.504-.882-.355.619-.726 1.223-1.082 1.842l-.294.866-3.432 9.225a7820.984 7820.984 0 0 0-4.777 17.179c-8.936-11.638-20.176-19.145-34.26-22.766-13.914-3.576-27.457-2.786-41.032 1.439 8.38-5.618 17.641-8.033 27.612-7.723 17.61.541 32.854 6.639 44.882 20.058 1.128-2.956 2.133-5.556 3.123-8.156.355-1.239.695-2.461 1.051-3.699.201-.48.402-.96.603-1.424.417-1.362.85-2.74 1.268-4.102.216-.371.432-.727.664-1.099 2.845-5.463 5.705-10.911 8.55-16.374.247-.325.479-.65.727-.96.309-.294.618-.588.927-.898 1.438-1.331 2.876-2.677 4.576-4.24-2.581-2.028-5.024-3.963-7.467-5.882-12.136-6.175-24.072-12.799-36.455-18.433-15.414-7.011-31.601-11.886-48.545-13.481-3.015-.278-7.309-1.779-9.814 0-6.509 4.597-11 5.436-19.5 3.936-2.133-1.16-2.686-4.044-5.5-3.936Zm-113-82.064c.959 1.3 1.266-.011 1.59 1.429 1.129 4.89.124 9.503-3.617 12.985-6.215 5.819-13.837 7.599-21.985 5.99-3.726-.728-8.086-1.502-9.972-6.547 4.577.51 8.704 1.253 12.848 1.377 12.956.403 19.281-.387 21.136-13.805v-1.429Z"/><path fill="#F5B0D0" d="M352.611 536.925c.123 12.499-.279 25.044.463 37.512a902.597 902.597 0 0 0 4.497 50.847c2.704 23.098-4.497 38.161-4.497 61.46 0 .448 5.006 4.97 6.506 5.97s6.321 5.154 7.881 5.633c11.869 3.631 23.381 6.149 36.301 2.797 19.239-4.991 31.108-17.938 31.077-37.621 0-1.607.17-3.198.355-6.211 2.071 1.947 3.183 2.982 4.281 4.017 6.212 5.825 11.852 12.468 18.76 17.288 9.612 6.721 20.322 11.387 32.236 13.427 11.698 2.008 23.196 2.271 34.461-1.051 11.019-3.26 21.759-7.478 32.576-11.402 3.029-1.097 4.822-.572 7.001 2.086 3.276 3.97 6.861 8.281 11.281 10.567 10.678 5.516 21.527 11.356 33.024 14.4 11.93 3.167 24.679 4.342 37.073 4.28 11.405-.062 22.948-2.225 34.137-4.713 11.42-2.533 19.796-10.089 24.648-20.672 5.331-11.665 1.808-22.912-3.199-33.805-1.962-4.264-4.141-8.435-6.228-12.638-3.322-4.032-6.753-7.988-9.936-12.128-1.762-2.302-3.199-4.766-4.729-7.254-.278-.262-.722-.737-1-1-.371-.35-.664-.637-.839-.769-1.329-1.004-2.581-2.148-4.002-2.997-9.535-5.686-19.704-9.07-30.877-10.259-22.886-2.441-43.269 3.522-61.952 16.5-1.499 1.036-3.508 1.329-5.286 1.963-3.059 4.326-6.212 8.59-9.148 12.993-1.561 2.333-2.998 4.944-6.228 4.342-3.709-.68-7.881-.495-9.72-5.331-1.205-3.182-3.539-5.933-5.378-8.868l-5.934-11.866c-31.386-33.434-58.801-43.198-98.717-22.819 2.009-2.349-1.273 1.29.581-.889.572-.401.756.327 1.343-.075l.157-.425c.371-.231 2.629-1.768 3-2l4-2-2-2.5c.819-3.831-2.208-5.126-5.5-8-4.821-4.202-9.993-8.075-15-12.061-1.453-1.159-4.485-1.357-6-2.439-.139-.185-3.753-1.061-4-1-1.035-.262-3.465-1.737-4.5-2-8.577-3.306-14.655-1.004-23.912 0v-.988c.124-.278.247-.541.371-.819l.201-.201-.093-.262.139-7.633c-.881-4.496-.686-9.116-1.706-13.597-1.313-5.747-3.78-11.37-5.202-17.102-2.348-3.476-3.449-7.921-5.798-11.398-2.642 1.499-6.394 4.847-9.207 5.28-5.038.788-10.555 1.776-14.603-3.059-.016.602-4.689-.721-.062 1.823-.371 8.265-5.256 16.284-5.627 24.55 0 .618 4.499 1.499 4.499 2.117h.031Z"/><path fill="#D5D0CC" d="M391.013 548.712c-.046 2.55-.031 6.452-.077 9.002 1.669.078 3.291-.965 4.929-1.151 10.306-1.174 20.226.402 29.853 4.08 11.588 4.436 17.793 11.715 24.36 22.888.572.989 2.187 3.492 3.5 3.183 18.372-4.42 36.694-5.439 54 1.5 13.165 5.27 22.5 11.313 36.653 25.361 1.407 2.55 2.813 5.1 4.111 7.464 7.756-4.08 15.158-7.016 23.424-2.797 3.585.541 6.521 2.751 10.739-.634 19.685-15.779 42.523-20.075 67.122-16.505 2.858.417 5.099.247 7.834-1.576 3.785-2.519 8.39-4.76 12.825-5.147 5.423-.479 11.032 1.067 16.548 1.747 1.314-1.453 2.704-2.859 3.94-4.374 3.261-3.987 7.68-7.588 9.333-12.178 1.932-5.301 5.099-7.975 9.766-9.922 1.56-.649 2.982-1.669 4.45-2.519 1.947-1.206 3.893-2.395 5.825-3.632 1.36-.865 3.028-1.499 3.956-2.704 6.165-8.021 14.416-12.812 23.764-16.181 2.457-.881 5.285-2.133 6.783-4.096 4.126-5.393 7.649-11.251 11.404-16.922-4.729-4.019-10.245-7.341-12.114-13.848-.958 1.515-1.669 3.261-2.89 4.498-12.686 12.734-28.044 14.28-44.67 10.555-4.126-.927-8.313-1.484-12.485-2.21-3.106 5.672-5.779 11.653-9.441 16.954-3.647 5.285-8.344 9.705-17.368 7.248 9.225-2.102 12.53-9.122 15.991-15.582-1.205-.973-1.64-2.351-3-3-3.43-1.669-7.492-3.001-11-4.5-8.545 11.421-20.564 15.695-34.007 17.487-12.206 1.638-24.305 4.25-36.295 7.125-7 1.684-13.551 5.316-20.551 6.97-7.2 1.7-14.725 2.102-22.127 2.983-5.67.664-11.357 1.174-17.027 1.761-.449.047-.912.217-1.345.139-9.116-1.483-18.387-2.349-27.272-4.713-6.181-1.654-12.16-4.822-17.568-8.33-4.512-2.937-4.203-5.672.015-9.087 6.521-5.27 13.211-10.355 19.917-15.378 9.642-7.232 19.392-14.311 29.018-21.543 1.005-.758 1.515-2.164 2.256-3.261-2.812.603-5.624 1.731-8.436 1.684-4.744-.092-7.463 2.597-10.353 5.703-6.273 6.769-12.16 14.079-19.314 19.782-8.931 7.124-19.083 12.503-32.742 10.169 7.586-3.06 13.841-5.863 20.331-8.491-1.962-2.024-4.038-3.975-6-6-4.172 1.252-7.934 2.9-12.184 3.827-10.955 2.411-20.906-.602-30.578-5.702-8.483-4.467-16.317-9.737-22.838-16.815-9.147-9.922-15.776-21.312-20.659-33.938-4.681-12.116-6.613-24.619-7.308-37.446-.062-1.268-.577-2.674-.933-3.926-3.075 7.635-5.819 15.64-9.435 22.997-3.6 7.31-9.982 11.961-17.553 15.006-2.287.927-3.94 2.117-5.547 4.853-1.465 4.644-2.465 5.644-1.965 9.144-.17.928 2.17 2.573 2 3.5-.046 1.839.546.161.5 2-.046.897 1.546.104 1.5 1 .5 0 .985 1.176 1 1.5-.139.557 1.139 1.444 1 2 .216.062 1.268 1.985 1.5 2 4.048 4.838 2.733 2.5 4.5 5.5 1.383 2.348.5 1.5.5 2.348-2.055-2.751 2.555 3.403.5.652.371-.262.013-.389.383-.652 6.815 5.533 10.068 11.514 12.617 20.277 5.161 8.67 6.976 17.062 6.435 26.875-.031.526.541 2.519-.077 3.014l.077-.016Z"/><path fill="#CDB3B5" d="M255.031 444.784c2.032.399 4.049.799 6.082 1.198 1.536.046 3.087.092 4.623.154l3.631.122c.636 0 1.287-.015 1.924-.03l1.784-.046a222.19 222.19 0 0 1 3.351-.261h2.652c.5 0 1 0 1.5-.207.5-.206 1.155-.324 1.759-.531 5.601-1.92 11.741-2.969 16.741-5.969-5.384-12.213-5.275-24.771-2.033-37.522 2.995-11.752 9.076-21.569 19.037-28.881.884-.661 1.877-2.151 1.722-3.073-2.048-12.243-2.265-24.549-1.381-36.9.047-.722-.279-1.459-.434-2.197-1.117-1.874-2.281-3.733-3.351-5.622-2.715-4.809-5.399-9.648-8.083-14.456l-5.12-3.78c-3.01-2.043-5.974-4.147-9.046-6.098-4.576-2.889-8.998-6.13-13.885-8.404-11.512-5.361-23.692-4.701-35.902-2.995-1.66.23-3.444-.384-5.166-.599-10.225 4.578-19.006 10.784-24.281 20.985v3.671c.046.292-.016.953 0 1.245 3.522.107 6.932.227 10.423.626 9.107 1.045 13.175 8.222 16.821 14.536 6.097 10.57 10.193 22.245 15.313 33.383 3.538 7.696 5.712 16.091 10.366 23.081 6.532 9.817 13.648 19.934 23.5 27 1.831 1.322 5.014 3.395 4.596 5.285-1.009 4.593-2.297 9.924-5.4 13.104-7.586 7.758-17.609 10.108-28.469 8.987-12.319-1.291-23.04-6.483-33.342-12.874-2.668-1.659-7.123-2.981-9.885-4.502 1.784 1.69 3.607 3.918 5.5 5.5 9.263 7.804 20 12.5 33.119 15.578.388.184-.388 1.506 0 1.69l1.334-1.198Z"/><path fill="#FBF1D7" d="M301.077 308.214c1.714 1.277 1.787 1.224 3.5 2.5 1.511.623 2.568.753 4 1.5 2.959 1.542 6.577 3.881 9.505 5.5 2.134-6.555 5.446-16.6 8-23 1.433-3.597-3.574-2.692-5.505-4-2.99-2.024-7.976-4.55-11.2-6.232-13.876-5.777-24.762-13.485-40.041-14.544-20.308-1.401-38.639 3.722-54.696 16.724-13.315 10.791-20.495 25.148-25.338 41.062-.172.669-.328 1.339-.499 2.024-.28.934-.545 1.868-.825 2.803.155.218.155.451.031.685-.031.389-.062.778-.078 1.168-.062.311-.109.607-.171.918-.203 1.044-.421 2.087-.623 3.13-.047.81-.078 1.635-.125 2.445-.062.607-.109 1.214-.171 1.822l-.187 2.834c.218.295.202.576-.062.84 0 .654.015 1.308.031 1.962 0 .888-.031 1.76-.047 2.648l.14 1.962c-.187.373-.374.747-.56 1.105a.78.78 0 0 1-.078.716l.887 8.331c.359 1.23.686 6.867 1.044 8.097.265-.996 2.71-7.069 2.819-8.097.669-6.54 1.348-12.534 2.749-18.903 3.162-14.388 8.469-27.165 18-39 2.882-3.332 5.777-6.026 9-9 5.514-5.076 10.464-8.046 18.5-8 2.212-.949 7.211-1.861 9.5-2.5 19.5-1.232 26.252-2.953 41 10.5 2.648 2.414 8.038 7.824 10 11l1.5 1Z"/><path fill="#94A0BD" stroke="#44164A" stroke-width="4" d="m363.853 277.595-.238.255-6.999 7.5-.084.09-.072.099c-.14.193-.325.426-.559.722-.811 1.025-2.218 2.802-4.449 6.284-.671.856-1.389 2.33-1.93 3.551-.593 1.34-1.143 2.769-1.37 3.568-.947 3.285-1.185 5.757-1.389 8.11l-.024.272c-.192 2.225-.375 4.346-1.098 7.173l-.048.184-.011.191c-.707 11.704-.979 29.459-1.065 41.104m19.336-79.103-17.336 79.119m17.336-79.119.31-.159c2.256-1.16 3.771-2.274 5.482-3.532.246-.181.497-.366.754-.553.399-.291.808-.586 1.238-.886m-7.784 5.13 7.784-5.13m-27.12 84.233v.002l2 .014m-2-.016v-.002l2 .018m-2-.016c-.018 1.96-.143 3.298-.262 4.57-.05.54-.099 1.068-.139 1.627-.095 1.348-.112 2.7.084 4.47m2.317-10.651c-.019 2.049-.155 3.515-.276 4.815-.175 1.874-.318 3.404-.027 5.84-.72 0-1.391-.002-2.014-.004m0 0c-.993-.004-1.863-.009-2.61-.014l-.817-.005c-1.268-.007-2.268-.013-2.693.037l-.004.001c-5.113.611-10.232 1.17-15.414 1.736l-3.639.399m25.177-2.154c.068.611.162 1.273.286 2.001-1.121-.004-2.09-.01-2.91-.015-1.861-.012-2.947-.019-3.262.018l-19.291.15m0 0c-3.497-21.911-2.596-44.171 5.23-65.991a88.824 88.824 0 0 0 1.082-3.244c.132-.415.25-.787.358-1.111.358-1.073.64-1.742 1.044-2.342l.004-.005c5.573-8.34 12.084-13.546 17.513-17.494 3.858-2.806 7.488-4.227 10.383-5.196 3.779-.932 9.562-1.366 14.735-1.586.777-.033 1.535-.061 2.265-.085m-52.614 97.054 52.614-97.054m-46.559 23.249c5.766-8.629 12.5-14 18-18 4.125-3 8-4.5 11-5.5 5.592-1.398 15.123-1.704 20.845-1.842a43.881 43.881 0 0 0-3.286 2.093m-46.559 23.249 39.999-16.5c2.406-1.236 4.047-2.444 5.759-3.703 1.363-1.003 2.772-2.04 4.65-3.152-1.137.027-2.441.06-3.849.106m-46.559 23.249c-.741 1.101-1.117 2.285-1.668 4.022a84.933 84.933 0 0 1-1.039 3.117c-8.187 22.823-8.907 46.085-5.012 68.861l7.719-76Zm32.356-8.165c.258-.327.469-.594.644-.835l-10.5 29c.765-2.988.96-5.25 1.152-7.476.209-2.42.415-4.799 1.344-8.024.378-1.328 2.026-5.327 3.004-6.5 2.196-3.434 3.523-5.112 4.356-6.165Z"/><path fill="#706B99" d="M374.045 417.714c-2.064 6.088-3.957 12.236-6.221 18.248-3.171 8.446-7.682 16.025-15.95 20.606-2.849 1.583-5.974 2.694-8.792 4.292 15.32-.883 24.204-10.775 31.84-22.813-.723 7.396-5.481 14.184-14.38 20.865 4.003.609 7.806-1.081 12.24-4.84 7.714-6.544 12.025-14.99 14.288-24.563.708-3.013 1.047-6.118 1.555-9.177-4.865-.867-9.731-1.735-14.596-2.618h.016Z"/><path fill="#94A0BD" d="M374.08 417.714c4.94.885 9.56 2.1 14.5 3 1.36-24.534-12.521-42.916-32.406-46.563 14.679 11.483 19.923 25.966 17.906 43.563Z"/><path fill="#D5D0CC" d="M367.078 371.714c-1.874-3.041-3.681-6.198-5.787-9.068-1.796-2.452-3.917-4.733-6.178-6.781-6.597-6.036-6.907-13.313-4.243-21.087 2.663-7.773 7.464-14.197 13.224-19.969.821-.823 1.316-1.971 1.967-2.979-4.011 1.443-8.037 2.87-12.048 4.313-.511.326-1.006.931-1.533.962-6.333.388-5.9 4.996-5.884 9.341.031 12.025.093 24.066.108 36.091 0 3.895 1.456 5.462 5.745 5.757 4.894.341 9.678 2.234 14.494 3.46l.135-.04Z"/><path fill="#8C8495" d="M354.978 434.536c1.331 2.648 2.662 5.281 4.009 7.929 5.911-7.13 8.604-15.654 10.047-24.491.697-4.278.063-8.76.031-13.147-1.79-.627-4.193-2.47-5.984-3.113-.111 2.288-.357 5.18-.5 8-6.038-2.35-3.055-8.272-6.32-11.593-.222.219-.444.438-.65.658-.158 1.99-.332 3.995-.491 5.985.127 4.388.238 8.775.365 13.163.427 1.347 1.299 2.726 1.188 4.027-.364 4.199-1.093 8.383-1.68 12.566l-.015.016Z"/><path fill="#C2D5CE" d="M363.126 403.425c1.682.624 4.27 1.15 5.952 1.789-.551-7.953-4.177-14.745-9-20.5-3.527-4.226-8.889-7.301-13.056-10.935-.313-.203-.64-.421-.953-.624-.68-.441-1.991-.941-2.991-.941-1 .5-2.75 2.518-4 3.5 11.386 5.692 20.58 14.923 24.048 27.726v-.015Z"/><path fill="#FBF1D7" d="M342.177 313.676c-.768 11.558-2.023 23.101-2.097 34.659-.038 5.694.875 11.17 1.998 16.879.5-7 .757-18.788 1-28.5.206-7.881.158-16.134 1-24-.899.326-1.003.636-1.901.962ZM327.082 302.066c1.592-1.323 3.646-2.351 4.681-4.001 5.35-8.591 13.247-14.086 22.26-18.444 1.656-.794 2.818-2.584 4.219-3.907-7.085 1.837-13.964 4.141-19.553 9.075-1.99 2.116-3.617 4.309-5.607 6.425-.43.716-1.208 1.326-1.638 2.042-.674 1.123-1.362 1.958-1.862 2.958-.25.5-.623 1-1 1.5-.223.296-.251.5-.5 1-.589 1.183-.411 2.184-1 3.367v-.015Z"/><path fill="#D5D0CC" d="M317.82 317.35c-2.89-1.621-5.764-3.289-8.701-4.832-1.437-.749-2.541-1.304-4.541-1.804 2.689 4.895 5.406 9.707 8.111 14.586 1.067 1.933 2.226 3.804 3.338 5.706.588-4.552 1.448-8.74 2.051-13.292l-.258-.364Z"/><path fill="#94A0BD" d="M355.078 394.715c-10.5-15.501-22-20.5-36-10.832 13.702-3.544 24.569 1.357 33.873 10.832.382-.778 1.746.777 2.127 0Z"/><path fill="#9DA1AC" d="M339.578 375.714c1.355-1.209 2.145-2.29 3.5-3.5-4.306-.038-8.774-1.061-12.871.014-5.516 1.44-10.758 4.398-16.129 6.721.21.922.436 1.844.645 2.765 8.355-5.5 15.881-7.017 24.365-6h.49Z"/><path fill="#D5D0CC" d="M342.078 313.714c.765-.336 1.235-.664 2-1 1.626-7.265.658-14 5.5-21-.909 1.217-3.649 1.64-4 3-1.674 6.337-3 12.5-3.5 19Z"/><path fill="#DC89B0" d="M679.58 618.714c2.5 4.5 19.233 27.32 21.195 31.6 5.008 10.932 8.548 22.221 3.2 33.928-4.853 10.638-13.23 18.205-24.652 20.748-11.206 2.497-22.752 4.668-34.143 4.73-12.38.062-25.147-1.116-37.079-4.295-11.499-3.055-22.349-8.917-33.029-14.453-4.421-2.295-8.022-6.621-11.283-10.606-2.179-2.652-3.972-3.195-7.002-2.094-10.819 3.939-21.561 8.172-32.581 11.444-11.267 3.334-22.782 3.071-34.467 1.055-11.916-2.047-22.627-6.73-32.241-13.476-6.909-4.838-12.55-11.506-18.764-17.352-1.097-1.039-2.21-2.077-4.281-4.031-.17 3.023-.355 4.636-.355 6.233.015 19.756-11.84 32.751-31.082 37.759-12.922 3.365-24.436.838-36.307-2.806-1.545-.481-2.952-1.458-4.42-2.218-.433 8.017-1.175 16.019-1.206 24.036-.046 8.621.572 17.243.897 25.88 0 .295.015.589.031.884.092 1.21.185 2.435.293 3.644l.634 3.722c.108 1.504.216 3.008.325 4.497l.371 1.907c1.066 1.969 2.148 3.954 3.214 5.924 3.694.791 7.404 1.566 11.098 2.357.912.093 1.824.17 2.736.263.293.062.587.124.865.186l6.584.977c.881-.046 1.747-.077 2.628-.124l2.859.14 1.206.418c.757.016 1.514.047 2.272.062H413.17c.835.031 1.685.047 2.519.078.17-.217.34-.233.526-.031l2.736.046c1.344-.279 2.704-.558 4.049-.821 1.237-.031 2.473-.078 3.71-.109.633-.062 1.267-.108 1.901-.17 2.256-.295 4.528-.605 6.8-.9.479-.217.943-.434 1.407-.651.463-.093.943-.186 1.406-.264.433-.108.866-.217 1.283-.325 1.577-.373 3.138-.729 4.714-1.101l.881-.14c2.458-.651 4.931-1.287 7.388-1.938 1.824-.683 3.632-1.365 5.456-2.047 2.149-.884 4.281-1.768 6.43-2.652l1.02-.791c2.117-1.116 10.628-5.537 12.684-6.623-2.195-3.52-6.882-3.588-9-7-.51-.837-3.474-2.178-4-3 1.947-.465-.936.155-.704 0 .417.341.834.682 1.267 1.008 15.456 16.732 35.518 23.71 57.296 25.307 20.077 1.473 39.002 4.042 59.141 3.685 18.408-.325 45.946-9.068 61-18-2.071-1.767-11.475-2.278-13.5-4 .124-.217-1.231.42-1.108.203 4.962 1.597 9.908 3.257 14.884 4.776 16.647 5.071 33.571 4.59 50.511 2.125 7.496-1.086 14.915-2.823 22.287-4.59 1.87-.45 3.447-2.125 5.147-3.241 3.292-13.538 3.787-27.23 1.561-40.922-1.685-10.328-4.981-27.851-6.337-30.797-.945-2.054-1.746-3.876-2.504-5.846-4.637-12.049-9.737-23.834-17.589-34.208-.852-1.126-3.352-4.5-5.352-6.5l-2.5-2.5-3-3-2.75-2.75-3.25-3.25Z"/><path fill="#502D58" d="M424.488 769.652c-1.592.407-3.202.814-4.794 1.198 1.592-.407 3.202-.814 4.794-1.198ZM440.07 767.255c-.404.4-.808.799-1.198 1.199.404-.4.808-.799 1.198-1.199Z"/><path fill="#FDCBB7" d="M491.578 312.215c-.724-9.711-1.458-17.613-6-26.5-.385-.61-.1-.889-.5-1.5l-.5-1.5c-.308-.366-.177-.133-.5-.5 0 0 0-.5-.5-1-1-3-2-4.5-4-8-.154-.229-4.346-1.271-4.5-1.5-1.832-.901-3.368-1.339-5-2.5-11.394-8.154-23.619-14.012-38-12.501-1.293.138-4.607 1.177-5.5 2.001-5.096 4.703-10.451 10.227-10.482 17.999 0 1.68.585 3.378 0 5.043 3.511 4.504 6.929 9.085 10.609 13.437.908 1.069 2.694 1.786 4.157 1.954 16.937 1.97 33.057 6.704 48.485 13.85.401.214.801.443 1.201.657.277-.046.478.046.632.275.431.198.862.412 1.293.61 2.617.962 6.972 4.713 9.605 5.675l-.5-3c.031-.305-.015-1.21 0-1.5v-1.5Z"/><path fill="#FBF1D7" d="M415.883 281.866c.583-1.715 1.673-3.446 1.673-5.161.015-7.992 5.048-12.901 10.127-17.747.89-.849 2.425-1.258 3.698-1.4 14.332-1.573 26.639 3.65 37.994 12.067 1.626 1.212 8.377 3.161 10.203 4.089-9.5-14.756-27.041-24.282-43-26.5-12.874-1.794-26.78 4.255-37 11.744-2.363 2.879-8.005 8.332-10 10.755 7.488 4.641 19.37 7.842 26.305 12.137v.016Z"/><path fill="#D5D0CC" d="M374.078 301.714c-.279 1.984-.658 5.055-1 7.5 5.373-1.23 14.17-4.893 19-6 4.162-.83 15.807-2.169 20-3-.31-5.212-12.967-15.685-19.661-17.5-3.463 2.538-11.876 7.463-15.339 10-.45.984-.05.516-.5 1.5-.015.293-.267 1.831-.5 2-.109.908-.391 1.093-.5 2l-1.5 3.5Z"/><path fill="#FBF1D7" d="M376.078 293.714c3.59-2.568 12.41-8.148 16-10.716-5.007-2.926-9.292-4.779-11.723-.001-.885 1.759-2.085 5.365-2.777 7.217l-1.5 3.5Z"/><path fill="#DC89B0" d="M935.59 599.035c.217-5.849.772-11.971.988-17.821-.34-2.816-.598-5.199-1-8-.789-5.524-1.18-9.975-2-15.5-.851-2.46-2.649-7.039-3.5-9.5-.603.666-1.876 1.758-2 2.5-.882 5.339-.965 11.183-2.017 16.475-1.377 7.041-3.883 13.757-8.37 19.389-10.535 13.246-25.14 18.554-41.353 19.575-6.822.434-13.784-1.083-21.225-1.748.371 1.315.634 2.739 1.16 4.069 3.636 9.13 2.444 14.608-5.198 20.643-12.407 9.811-26.718 11.405-41.832 9.084-1.687-.263-3.404-.248-4.1-.294.217 5.911 1.331 11.435.433 16.604-2.289 13.246-11.231 21.818-22.494 27.915-13.444 7.289-27.282 7.21-41.004.788.82 6.283 2.266 12.18 2.359 18.478.17 13.06-.372 26.136-.619 39.196 7.225-2.181 14.62-3.93 21.659-6.623 15.455-5.926 27.506-16.139 36.03-30.422.542-.913 1.161-1.795 1.78-2.662.17-.232-.148-1.183 1.291-.967-1.392 3.637-5.108 7.333-6.5 11 21.241 3.08 45.664-12.029 59.866-37.422-2.366 6.422-7.092 8.265-7.866 12.922 13.506.96 29.54-2.214 40.602-9.286 28.651-18.321 41.027-45.912 44.941-78.393h-.031Z"/><path fill="#FEF7D8" d="M509.16 338.714c5.135 6.758 2.341 12.431 2.915 20-1.659.422-3.389 1.819-5 2.225 3.652 1.998 8.49 3.699 10.5-.718.478.234.181-.234.66 0-.559 2.544-1.101 5.088-1.659 7.632 3.684-.281 4.147 1.686 5.024 4.901 2.025 7.335 1.02 15.591 6.49 22.006.862.999.798 2.903.846 4.386.143 4.619.127 9.255.159 13.875 2.483-7.307 4.494-14.222 5.483-21.807-.638-7.148-1.365-15.352-2.003-22.5-2.44-8.709-4.389-18.185-10.561-25.754-1.722-2.654-3.508-4.62-7.368-3.387-1.563.499-3.636-.531-5.486-.859Z"/><path fill="#FACBBC" stroke="#44164A" stroke-width="3" d="M518.993 339.937h.01c.213.018.635-.041 1.248-.281a9.529 9.529 0 0 0 1.839-.997 8.882 8.882 0 0 0 1.547-1.317c.421-.464.557-.767.58-.866.264-1.251.113-3.344-.285-5.231-.195-.923-.431-1.704-.653-2.225-.025-.06-.05-.113-.072-.16-3.534-.085-7.099.533-10.71 1.16-.925.16-1.854.321-2.786.471.11 3.649 1.173 5.782 2.573 7.083 1.6 1.485 3.919 2.151 6.709 2.363Zm4.058-11.357c-.027-.037-.026-.027.005.006l-.005-.006Z"/><path fill="#F5B0D0" d="M686.566 596.067c23.51 11.237 35.746 31.935 45.193 54.593 4.29 10.296 6.912 21.889 10.319 32.554 13.753 6.406 28.041 7.27 41.5 0 11.275-6.081 19.827-15.652 22.103-28.849.899-5.155.217-10.372 0-16.269.697.047 2.209 1.356 3.897 1.618 15.131 2.316 30.579-.214 43-10 7.651-6.035 7.496-12.162 3.856-21.268-.527-1.312-.79-2.732-1.162-4.059 7.45.679 14.461 3.26 21.306 2.827 16.231-1.018 30.795-7.396 41.342-20.609 4.507-5.633 7-12.332 8.379-19.339 1.037-5.279 1.517-10.681 2.416-15.991.123-.756 2.759-1.397 3.363-2.061-1.889-5.494-3.89-11.009-5.779-16.504-3.779-5.68-4.6-11.335-8.379-17-.914-1.373-3.531-4.142-4.461-5.5-4.987-4.244-11.754-9.456-16.881-13.5-5.916-4.661-12.581-6.444-20-7-3.02-.231-5.186.583-8.5 1 .821-14.2-7.153-24.497-14.308-36.243-1.657-2.716-3.438-5.34-5.157-8.011a28.068 28.068 0 0 1-.682-.71c-.402-.385-.82-.771-1.223-1.157-7.001-6.128-13.985-12.256-20.986-18.383-7.387-3.164-14.527-7.1-22.178-9.338-29.194-8.49-55.957-2.979-80.179 15.218-4.228 3.18-8.534 6.267-12.793 9.4-.372-.37 1.378.599 1.006.228 2.71-3.056 8.876-6.91 12.5-11-3.593-3.426-7.5-9-14.637-11.5-7.062-4.198-16.525-5.464-24.718-4.893-.898.185-2.431.787-2.602.525-12.204-19.124-31.197-26.299-52.043-24.632-13.784 1.096-25.333 9.783-35.307 19.384-1.734 1.667-3.144 3.689-4.692 5.556.093.247.186.494.263.741l.697-.278c-.232.093-.449.201-.682.294 5.049 3.395-.783 8.824 2.221 14.303.976 1.775 13.995 1.579 16.225 2.089 25.787 5.973 49.359 16.87 71.274 31.518.372.277.728.555 1.1.833l-.062-.077c2.044 1.235 4.088 2.485 6.071 3.689.588-.386.991-.618 1.347-.895 8.58-6.668 16.634-5.372 22.69 3.503.588.865 2.168 1.235 3.36 1.482 5.173 1.081 10.501 1.621 15.55 3.118 8.781 2.593 15.023 8.921 21.047 15.404 3.671-7.486 7.342-14.987 11.012-22.473.294-.355.589-.695.867-1.034l-.062.061c.326-.339.666-.663.992-1.003 4.538-6.328 10.903-9.662 18.507-10.202 11.539-.818 17.749 8.473 12.979 18.954-1.069 2.33-2.044 4.707-3.175 7.007-6.954 14.092-13.939 28.169-20.908 42.261.929.988 1.967 1.899 2.757 2.979 3.856 5.202 8.611 4.924 12.328 2.516 7.31-4.723 22.72-1.405 27.97 3.889a949.517 949.517 0 0 0 10.501 10.45c1.254 1.235 2.664 2.315 4.863 4.214-2.896.849-4.383 1.775-5.746 1.62-5.761-.694-9.943 2.099-13.954 5.588-.651.555-1.58.787-2.385 1.173.433 1.25.867 2.5 1.285 3.72-5.049-3.442-8.492-7.523-13.433-10.888-.48-.108-.52-.392-1-.5-.341-.231-.659-.268-1-.5-.294 0-.752-.361-1-.5-.465-.2-.535-.299-1-.5l-.78-.29-.22-.21c-.434-.293-1.19-.722-1.623-1-1.131-.293-2.262-1.191-3.377-1.5-1.394-.293-3.606-.706-5-1-3.113-.339-4.887-.66-8-1-.356-.046-4.644.047-5 0-5.08.926-8.513 1.735-13.5 3-13.629 3.473-23.462 7.347-31.5 19-.325.479-1.679.861-2.5 1-.48-1.173-1.685 2.404-2.165 1.216-1.239.062-2.478.123-3.717.201-1.487.849-2.896 1.867-4.46 2.516-4.678 1.944-7.868 4.615-9.788 9.909-1.673 4.584-6.103 8.165-9.355 12.162-1.239 1.513-2.633 2.918-3.949 4.369l-.078-.016Z"/><path fill="#FBF1D7" d="M571.617 413.124c-6.16 1.687-12.319 3.388-18.478 5.075-.678 3.202 5.035.629 2.402 3.731 2.818 1.544 5.605 2.616 8.638.329.247-.186 1.232.471 1.863.743.878-.329 1.771-.658 2.649-.986 4.419-.086 8.869-.515 13.212-.072 1.262.129 2.232 2.702 3.341 4.146l8.691.932c2.001-13.502-10.446-15.314-22.334-13.913l.016.015Z"/><path fill="#FDCBB7" d="M207.722 307.036c-9.512 11.806-13.382 25.99-16.537 40.345-1.398 6.354-1.352 13.018-2.005 19.543-.108 1.01-.512 2.004-.792 2.998 2.02 12.957 6.807 24.981 13.459 36.136 3.388 5.67 8.144 10.517 12.294 15.721.311.342.622.668.933 1.01l-.016-.016.964.917c.326.28.652.575.979.87 2.751 1.538 5.595 2.952 8.268 4.614 10.305 6.463 21.06 11.714 33.4 13.019 10.864 1.149 20.904-1.243 28.52-9.089 3.108-3.215 4.398-8.606 5.408-13.251.42-1.911-1.476-5.267-3.31-6.587-9.869-7.146-17.407-16.467-23.95-26.395-4.663-7.068-7.725-15.224-11.268-23.007-5.129-11.263-9.232-23.07-15.34-33.758-3.653-6.385-7.492-14.262-16.615-15.334-3.497-.404-7.056-.264-10.584-.357-.124-.078-.357-.171-.357-.218.046-.233.17-.45.264-.683v-3.713c-1.228-.917-2.456-1.849-3.684-2.765h-.031Z"/><path fill="#49204F" d="M185.989 357.372c.4-.405.799-.81 1.199-1.199-.4.405-.799.811-1.199 1.199Z"/><path fill="#8C8495" d="M179.998 534.748c.813-.799 1.605-1.598 2.397-2.397-.814.799-1.606 1.598-2.397 2.397Z"/><path fill="#A4AAB2" d="M221.942 511.977c.396-.391.793-.807 1.199-1.198-.397.391-.793.807-1.199 1.198Z"/><path fill="#D1B9B9" d="M698.95 496.169c1.923-3.877 4.093-7.661 5.677-11.676 1.247-3.169.123-6.954 2.585-10.062.554-.692-.938-3.015-1.846-5.599-1.077 3.661-1.554 6.107-2.554 8.322-.692 1.523-2 2.893-3.339 3.954-.569.446-1.892-.061-2.877-.138.231-1 .738-1.756.984-2.756-5.077 0-9.768.848-12.368 5.879-1.508 2.938-3.909 6.291-5.632 9.121-3.692 10.4-6.907 20.155-10.6 30.555 3.477 1.507 7.016 2.907 10.431 4.553 1.354.662 2.431 1.877 3.631 2.831.846-1.415 1.846-2.769 2.508-4.277 4.508-10.215 8.939-20.476 13.4-30.722v.015ZM500.025 522.449c5.608-5.106 11.293-10.136 16.794-15.365 3.611-3.434 6.668-7.467 10.464-10.641 1.92-1.61 4.947-1.917 7.467-2.806-.953-1.472-1.717-2.935-2.67-4.423-5.408 3.481-11.282 6.616-16.368 10.526-5.254 4.048-9.7 8.512-14.632 12.974 1.829.307 4.737-1.934 4.829 3.08-2.043-1.227-5.27 3.787-6.007-1.886-3.965 2.147-8.358 4.66-12.322 6.806 1.951 2.009 4.049 3.992 6 6 .522-.337 1.478-1.162 2-1.5-.184-1.763-.677-2.326-1-5.5 2.32 1.656 2.994 2.442 4.5 3.5l.945-.765Z"/><path fill="#FACBBC" d="M680.578 491.714c1.723-2.811 3.468-4.459 4.991-7.394 2.599-5.024 6.933-6.121 12.009-6.106 1.984-2.75 4.034-5.541 6.156-8.475-3.737-2.658-7.106-2.751-10.136-.553-8.199 5.915-16.29 13.026-19.52 23.028 1.831.292 3.685.708 5.5 1l1-1.5Z"/><path fill="#FDCBB7" d="M532.08 489.214c.932 1.522 1.568 2.963 2.5 4.5.556 0 1.681.27 2.252.286 1.308-.174 2.631-.348 3.939-.523 4.992-1.093 5.984-3.787 3.338-9.079l-.06-.048c-1.459-1.093-2.511-2.042-3.969-3.136l-.5-.5c-.887.46-2.207.8-2.748 1.545-1.624 2.282-3.279 4.563-4.752 6.955Z"/><path fill="#49204F" d="M517.603 366.687c.526-2.473 1.038-4.945 1.565-7.418-.452-.228-.888-.471-1.34-.698-1.896 4.278-4.786 4.536-8.248 2.594.196 1.517.075 3.201.692 4.536.693 1.517 2.047 2.731 2.77 3.656a324.985 324.985 0 0 1 3.748-1.653c.271-.319.542-.653.813-.971v-.046Z"/><path fill="#FACBBC" d="m544.278 484.035.061.047 3.602-.471 1.104.754c.505 0 1.026.031 1.532.047.291-.911.598-1.836.889-2.746l.031.062c0-.376.015-.737.03-1.114-.046-.251-.092-.518-.153-.769-.23-.643-.444-1.302-.674-1.946-.096-.267 0-.43-.12-.685-.306-.408-.662-.758-.968-1.166l.061.078c-.291-.345-.583-.69-.874-1.051-.245-.126-1.443-.329-1.719-.361-2.82 1.899-4.68 4.102-7.5 6v.5c4.184.063 5.112.138 4.668 2.79l.03.031Z"/><path fill="#D5D0CC" d="M499.58 514.213c.72 5.068 4.353.684 6.406 1.766.094-5.265-3.067-2.99-4.906-3.264-.322.26-.5.5-1 1l-.5.498Z"/><path fill="#4B224B" d="M553.927 476.023ZM546.736 468.832c.792.392 1.585.805 2.397 1.198-.793-.393-1.585-.806-2.397-1.198ZM677.372 477.221c.408-.406.79-.811 1.198-1.198-.408.406-.79.812-1.198 1.198ZM552.727 473.625c.409.405.817.794 1.199 1.199-.409-.405-.817-.794-1.199-1.199Z"/><path fill="#F5B0D0" d="M576.695 623.27c-1.823-.841-3.661-1.696-5.485-2.537-9.04-1.877-19.112-.76-26.132 5.981 1.793 2.853 3.815 6.908 5 10 1.808 4.699 7.854 4.325 11.5 5 3.176.586 4.588-3.536 6.123-5.803 2.886-4.279 5.986-8.422 8.994-12.626v-.015Z"/><path fill="#66526E" d="M392.955 556.893v-2.179c.553-12.783-1.607-24.706-6.873-36-1.012-.523-1.972-.476-3-1 2.5 7.5 4.156 13.992 5.5 21.5 1.044 5.818 1.502 12 1.002 18.5l3.371-.821Z"/><path fill="#502D58" d="M383.259 517.91c.954.42 1.909.839 2.878 1.258-2.475-9.142-7.947-15.817-14.522-21.573-.358.274-.701.532-1.059.806 1.983 2.87 3.951 5.756 5.934 8.626 2.267 3.628 4.518 7.256 6.784 10.883h-.015Z"/><path fill="#502D58" d="M369.783 498.03c.954.419 1.908.838 2.877 1.257-2.475-9.142-7.947-15.817-14.522-21.573-.357.274-.7.532-1.058.807 1.983 2.869 3.951 5.755 5.934 8.625 2.266 3.628 4.517 7.256 6.784 10.884h-.015Z"/><path fill="#D6D2CD" d="M438.869 591.077c.792-.4 1.583-.799 2.397-1.199-.792.4-1.584.799-2.397 1.199Z"/><path fill="#FDF7D8" d="M748.38 493.088c-8.008-8.903-17.593-14.973-29.567-16.898-3.997-.647-5.987.524-7.518 4.606-2.665 7.132-6.293 13.894-9.524 20.796-2.542 6.931-6.651 16.082-9.193 23.013 4.119.724 9.912 2.201 14 3.109 16.476 3.697 31.803.678 44.374-12 1.225-1.232 4.318-4.49 5.252-6 2.144-5.206 2.246-10.793 4.374-16-1.286-.955-2.714-2.045-4-3-1.745 3.451-3.865 7.319-5.626 10.77l-6.171 10.398c-.704-.355-1.408-.724-2.128-1.079l5.451-12.215c.077-1.833.168-3.666.245-5.5h.031Z"/><path fill="#D1B9B9" d="M766.078 523.714c6.268-12.061 12.726-25.012 18.84-37.149 2.803-5.588 5.375-11.329 7.377-17.237.601-1.771-1.093-4.305-1.74-6.489-.293 1.466-.462 2.947-.893 4.367-1.433 4.809-6.726 6.577-10.084 3.508-5.513-.168-8.089 4.049-10.446 7.897-3.018 4.916-5.744 10-8.609 15.007-2.156 5.161-3.804 12.936-5.945 18.096 1.864 6.428 6.787 8.046 11.5 12Z"/><path fill="#4D2554" d="M301.078 308.214c-1.977-3.149-4.607-8.109-7.275-10.502-14.873-13.321-32.147-17.829-51.727-12.395-2.307.633-4.456 1.821-6.668 2.763a.909.909 0 0 1-.283.772c1.742.216 3.546.833 5.225.602 12.363-1.714 24.663-2.377 36.305 3.01 4.926 2.284 9.414 5.541 14.042 8.443 3.106 1.961 5.837 4.254 8.881 6.307l1.5 1Z"/><path fill="#FACBBC" d="M236.038 288.664a.946.946 0 0 0 .284-.804c-8.153-.048-14.331 4.39-19.925 9.633-3.271 3.055-5.892 6.264-8.815 9.721 1.248.949 2.479 2.468 3.727 3.417 5.373-10.678 14.316-17.175 24.729-21.967Z"/><path fill="#41184F" d="M354.531 434.466c.57-4.027 1.277-8.054 1.631-12.096.108-1.251-.738-2.578-1.154-3.875-.123 1.221-.246 2.428-.354 3.649l-.831 4.615c-4.094 12.578-11.343 21.913-25.703 23.889-1.031.377-2.062.754-3.109 1.146.6.392 1.216.784 1.816 1.176.4.075.801.136 1.216.211 11.343.769 18.716-4.901 23.902-14.131.862-1.538 1.724-3.061 2.586-4.584Z"/><path fill="#66526E" d="M325.521 452.052a374.54 374.54 0 0 0 3.088-1.21c-3.989-1.195-7.979-2.389-11.985-3.584 2.966 1.593 5.932 3.202 8.897 4.794ZM308.235 438.87l1.199 1.198c-.406-.406-.812-.792-1.199-1.198Z"/><path fill="#F5B0D0" d="M771.983 522.978c-3.557 5.421-15.599 17.43-19.405 23.236l23-2c.668.247 4.848 1.254 5.5 1.5 4.272 1.279 4.728.722 9 2 1.768 0 4.143 2.239 4.5 2.5.87.37 1.646 2.631 2.5 3 3.806 3.081 6.194 4.92 10 8 .808-.385 4.848.555 5.5 0 4.023-3.48 6.222-10.693 12-10 1.766 2.139 3.595-1.776 6.5-2.638-2.206-1.895-4.107-4.59-5.38-5.822a840.836 840.836 0 0 1-10.532-10.427c-5.25-5.283-20.722-8.595-28.053-3.882-3.728 2.403-8.497 2.68-12.365-2.51-.808-1.078-1.833-1.987-2.765-2.973v.016Z"/><path fill="#4B224B" d="M762.462 467.634c.406-.394.813-.805 1.198-1.199-.406.394-.813.805-1.198 1.199Z"/><path fill="#502D58" d="M788.828 547.931c-.404-.406-.794-.813-1.198-1.198.404.407.794.813 1.198 1.198Z"/><path fill="#D5D0CC" d="M500.078 522.214c-1.68-.96-3.466-1.565-6.081-3.046.364 2.839 1.373 4.469 1.581 6.046 1.732-.864 1.768-1.136 3.5-2l1-1Z"/><path fill="#4B224B" d="M544.209 484.412c.482-2.949-.272-3.525-4.667-3.595 1.556 1.204 3.112 2.391 4.667 3.595Z"/><path fill="#FACBBC" d="M764.082 472.214c-2.766 6.588-4.844 12.262-7.61 18.849 1.277.984 2.554 1.953 3.83 2.937 2.812-5.207 6.301-10.674 9.28-15.786 2.325-4 4.5-7 10-7.5 1.155-.587 1.756-1.382 2.805-2.112 2.918-2.016 6.368-3.794 4.894-8.572-7.493-2.635-12.813 1.842-18.148 6.144-1.17.936-1.472.977-2.551 2.04a122.06 122.06 0 0 1-1 1.5c-.181.266-1 1.5-1 1.5l-.5 1Z"/><path fill="#502D58" d="M780.438 541.939c-.806-.391-1.611-.807-2.397-1.198.805.391 1.61.807 2.397 1.198Z"/><path fill="#94A7C2" d="M363.078 410.052c-.968-14.269-18.88-27.919-38.808-24.92-16.137 2.482-27.029 11.995-26.141 35.364.887 23.369 20.17 41.982 40.744 38.88 21.058-3.206 23.076-23.99 24.205-49.324Z"/><path fill="#49204F" d="M712.219 568.072c-1.276-.36 1.277.359 0 0-.266-2.774.232 2.438 0 0 18.501-18.501 35.956-29.386 59.367-28.387 14.992.638 32.995 7.494 42.494 24.998-10.5-10-29.002-19.999-44.494-19.999-12.972-.347-34.366 5.687-51.866 27.887-.5-5.5 2-3.999-5.501-4.499ZM476.863 752.028c.977.896-.978-.896 0 0-1.012 2.596.892-2.281 0 0-23.501 16-66.407 23.582-116.103 13.551-49.403-14.05-70.401-30.05-70.402-55.049 6.501 29.499 31.473 40.468 71.501 51.499 40.704 11.217 94.003.254 111.011-12.994 2.212 1.179-2.478-.833 3.993 2.993Z"/><path fill="#49204F" d="M302.309 734.611c.743 1.098-.743-1.098 0 0-1.586 2.291 1.396-2.013 0 0-26.567 10.122-67.506-11.888-75.005-17.998-13.5-11-33.357-31.501-33.355-59.643 4.859 29.641 27.805 50.739 36.633 57.244 9.5 7.001 48.111 24.851 67.725 15.902 2.501 2.994-1.406-.726 4.002 4.495ZM552.405 626.237c1.177-.288-1.177.289 0 0 .196-3.069-.171 2.699 0 0-13.223-28.943-48.527-41.992-57.33-44.024-19.497-4.499-49.672-1.837-66.121 20.543 20.827-19.749 53.962-18.311 64.124-16.542 10.162 1.77 43.601 17.959 52.5 40.5 3.553-.413-.121-.578 6.827-.477Z"/><path fill="#49204F" d="M454.296 588.788c.755.033-.755-.033 0 0 .636-1.386-.557 1.219 0 0-3.048-15.193-22.026-26.181-26.964-28.358-10.938-4.821-30.106-7.986-43.752 0 18.5-4.85 33.702.036 39.5 2.284 5.798 2.248 22.5 13.5 27.04 25.331 2.201.311.025-.284 4.176.743ZM358.593 423.713c.237-.017-.236.018 0 0 .277 1.282-.242-1.127 0 0-.135 13.882-3.007 20.847-8.002 25.5-5.501 5.125-18.009 8.439-27.498 2.501 7.997 4.999 21.992 0 25.989-4s6.219-10.728 7.009-21.501c1.5-1 1.247-1.628 2.502-2.5ZM203.086 687.218c-.139 1.318.14-1.319 0 0-2.689.729 2.365-.639 0 0-26.837-9.383-47.006-42.504-49.505-67.498-2.5-24.994-.638-51.984 17.5-73.5-15.388 25.795-14.879 63.697-13 74.5 3.999 22.994 22.719 53.508 43.482 59.307-.016 3.902.753-.286 1.523 7.191ZM644.583 754.214c1.187.59-1.187-.59 0 0-.253 2.775.226-2.439 0 0-18.15 21.883-82.005 20-97.005 20-17.413 0-70.157-10.497-84-34.998 18.813 23.415 69 29.998 84 29.998 11.801 0 77.332.44 90.005-17 3.651 1.376-.276.115 7 2Z"/><path fill="#49204F" d="M729.58 742.214c.625.311-.626-.311 0 0-.303 1.803.268-1.585 0 0-11.37 15.164-46.824 18.146-55.163 19.023-9.681 1.018-38.39-2.663-44.654-17.645 9.09 13.991 36.978 14.499 45.317 13.622 6.561-.69 45.935-6.019 54-18 1.949.674-.5.5.5 3ZM738.082 740.214c-.293.643.293-.643 0 0 1.388 1.223-1.221-1.074 0 0 18.6 4.663 46.855-13.783 53.134-19.487 3.868-3.514 11.364-13.015 15.37-25.014-6.5 10.499-17.639 22.499-21.502 25.014-5.593 3.641-31.528 20.756-45.502 16.487-1 1.001 1.088-.129-1.5 3Z"/><path fill="#49204F" d="M796.559 711.061c-.293.643.293-.643 0 0 1.387 1.223-1.221-1.074 0 0 18.599 4.663 33.521-4.347 40.021-8.846s21.974-24.154 25.981-36.153c-6.501 10.5-20.981 29.77-28.481 34.652-7.5 4.882-22.048 12.116-36.022 7.847-.999 1.001 1.089-.629-1.499 2.5Z"/><path fill="#49204F" d="M849.506 687.038c-.293.643.293-.643 0 0 1.388 1.223-1.221-1.074 0 0 18.6 4.663 47.569-2.501 67.563-27.327 15.552-19.311 25.551-61.981 19.011-79.997 0 22.826-7.511 57.496-23.011 77.496-15.5 20-47.02 30.771-60.994 26.502-.999 1.001.019.197-2.569 3.326Z"/><path fill="url(#f)" d="M870.443 487.122c9.881 0 19.55 2.856 27.844 8.225l4.18 2.705a63.062 63.062 0 0 1 27.061 38.253l3.908 16.32 3.644 30.589-1-3.5-4.305-24.477a101.041 101.041 0 0 0-3.821-14.932l-2.347-6.926a67.21 67.21 0 0 0-14.593-24.361l-1.254-1.34a51.737 51.737 0 0 0-9.286-7.829l-1.968-1.297a45.675 45.675 0 0 0-32.564-6.931l4.501-4.499Z"/><path fill="url(#g)" d="M871.593 488.148a69.125 69.125 0 0 0-10.443-28.524l-6.066-9.414a82.024 82.024 0 0 0-39.331-29.617l-15.175-5.379a77.36 77.36 0 0 0-59.424 3.779l-1.427.705a81.147 81.147 0 0 0-16.895 11.157l-13.248 11.355 20.994-14.996 14.625-6.599a74.59 74.59 0 0 1 53.875-2.901l16.607 6.686a83.22 83.22 0 0 1 35.899 27.81l1.6 2.252a70.242 70.242 0 0 1 12.899 37.269l5.51-3.583Z"/><path fill="url(#h)" d="M589.109 415.452c.75.271 1.486.557 2.236.828 1.547-1.91 4.017-5.331 5.733-7.066 9.865-9.911 25.5-16.583 36.5-17.5 15-1.25 36.429 4.288 48.5 24 .695 0 3 0 4 .5-.613-1.05-1.555-2.691-2.5-4-6.5-9-13-14.91-20.94-18.192-21.63-8.941-42.54-6.634-61.627 7.287-5.933 5.405-7.433 7.905-11.933 14.143h.031Z"/><path fill="url(#i)" d="M684.08 413.214c0 .506 1.502 1.953 1.502 2.495 1.231-.915 5.963-.722 9.003-.507 5.46.386 12.921 2.909 18.497 6.007 1.8 1 6.543 4.512 10.5 9.5.042-.988-.497.494 1.004-1.006-.5-1-1.988-2.492-2.504-2.994-1.284-1.249-3.161-3.626-5.996-5.512-4.963-3.303-10.699-5.455-16.543-6.628-.596-.12-1.247-.24-1.961-.36l-3.5-.5-4.002-.495a18.251 18.251 0 0 0-6 0Z"/><path fill="#44164A" d="m296.727 276.139 31.351 15.575-2 3.5-30.063-14.812c-29.689-14.628-65.446-8.205-88.188 15.843a75.47 75.47 0 0 0-20.62 53.389l.155 7.635a94.11 94.11 0 0 0 24.418 61.352l2.879 3.17a73.127 73.127 0 0 0 82.946 18.055l1.473-.632 2 3.5c-20.365 8.91-43.678 8.682-63.907-.532-12.149-5.533-22.76-14.097-30.704-24.825l-5.002-6.756a94.702 94.702 0 0 1-18.221-64.689l.576-6.507a78.35 78.35 0 0 1 26.254-51.889c23.89-21.046 58.14-25.543 86.653-11.377Z"/><path fill="url(#j)" stroke="#44164A" stroke-width="2" d="m625.438 804.715-1.73-.104.584.125.032.007.031.009h.001l.001.001h.002l.023.006.049.013.065.017c.108.027.278.067.518.12.482.105 1.247.259 2.357.444 2.221.37 5.821.867 11.302 1.365.855.078 3.919.105 6.92.114 1.125.004 2.241.005 3.208.005 1.483.002 2.615.003 2.889.012.909 0 1.843 0 2.721-.03l.017-.001h.017c.172 0 .335.01.466.017.139.008.246.014.351.014.662 0 1.336.016 1.982.031h.011c.409.015.878.008 1.381 0h.014c.476-.008.982-.015 1.439 0 17.087-.34 32.405-4.967 45.968-15.512l.001-.001c10.937-8.488 19.547-18.872 25.643-31.311l.205-.418.009-.002a8733.164 8733.164 0 0 1 6.903-17.858c.028-.248.058-.496.087-.74v-.002c.034-.282.067-.557.096-.827.097-1.619.213-3.225.33-4.825.24-3.317.479-6.604.531-9.906v-.001c.368-22.393-2.747-44.262-10.286-65.355v-.001c-6.099-17.1-14.775-32.758-27.212-46.082-6.95-7.444-15.148-12.738-25.299-14.433-3.132-.517-7.81-.441-12.46.3-3.736.595-7.345 1.603-10.075 3.002 6.646 2.043 13.904 4.645 20.653 7.93 7.465 3.633 14.375 8.133 19.134 13.697l.472.472c.18.179.32.312.451.435l.126.119c.162.154.323.313.486.515 12.351 14.478 17.927 31.623 23.681 49.329l.015.047.011.049c2.976 13.617 5.608 26.268 7.525 40.076 1.601 11.568 1.031 23.525-3.033 34.896-1.597 8.798-6.091 15.157-10.991 22.091l-.16.226c-10.392 14.757-20.949 24.536-38.578 28.895l-.557.138c-6.376 1.579-13.704 3.393-20.025 3.653l-.02.001h-.021c-.134 0-.329.003-.539.007h-.012c-.199.004-.411.008-.566.008h-.023l-.023-.001a8.114 8.114 0 0 0-.828 0l-.018.001H651.661c-.302 0-.641 0-.973-.014-.258.013-.91.03-1.731.048-1.011.022-2.362.046-3.799.061-2.849.028-6.104.022-7.663-.114-1.29-.113-6.498-.425-12.057-.758Z"/><path fill="#44164A" d="m488.145 296.287 3.933 23.927 4.5 4.5-3.769-25.756c-1.467-10.022-5.329-19.641-11.162-27.92a63.98 63.98 0 0 0-15.893-15.761l-1.387-.959a56.037 56.037 0 0 0-22.622-9.159l-1.117-.186a48.786 48.786 0 0 0-32.763 6.073l-1.794 1.055a59.497 59.497 0 0 0-12.628 9.949l-1.8 1.865a78.442 78.442 0 0 0-11.327 14.963l-1.435 2.461a101.98 101.98 0 0 0-7.32 15.363l-5.483 14.512 7-2 2.603-10.673a67.696 67.696 0 0 1 17.903-31.832l1.303-1.303a60.782 60.782 0 0 1 15.1-11.032l1.348-.695a49.217 49.217 0 0 1 12.057-4.346l.282-.061a47.794 47.794 0 0 1 36.499 6.773l3.238 2.133a56.625 56.625 0 0 1 24.734 38.109Z"/><path fill="#44164A" d="m366.578 271.714-9.5 8-6.5 11 14.5-5 6.734-1.496a47.055 47.055 0 0 1 13.678-.992l3.182.236a24.314 24.314 0 0 1 17.122 8.972l6.284 7.78h28.5l-7-9.5a55.734 55.734 0 0 0-12.907-11.938l-1.593-1.062a68.023 68.023 0 0 0-22.5-8 74.198 74.198 0 0 0-28.673 1.658l-1.327.342Z"/><path fill="#49204F" d="m374.578 309.714-28 11v-4.5l25-10 .224-.095a98.924 98.924 0 0 1 21.276-6.405l4.659-.828a131.47 131.47 0 0 1 60.351 3.387l.525.155a137.174 137.174 0 0 1 27.653 11.613l12.038 6.688a25.859 25.859 0 0 1 3.372 2.236l3.602 2.819a16.418 16.418 0 0 1 6.3 12.93 93.06 93.06 0 0 0-39.712-25.579l-1.288-.421-24.5-7.5-7.593-1.491a113.307 113.307 0 0 0-40.907-.509l-.277.046a106.141 106.141 0 0 0-22.723 6.454ZM507.035 437.575l-.457.139 2.5-3.5a37.75 37.75 0 0 1 17.412-5.649l5.088-.351 14.5-1h21.5l40.5 4.5 3.668.917a170.23 170.23 0 0 1 27.832 9.583l14.5 6h-12.5l-9-4a249.621 249.621 0 0 0-38.795-9.879l-.705-.121-7.154-.97a223.269 223.269 0 0 0-44.846-1.53l-11.5 1.5a110.26 110.26 0 0 0-22.543 4.361Z"/><path fill="url(#k)" d="m525.129 349.158-4.547-8.445 3.039-1.863 5.296 10.864 2.733 6 1.931 6.501 2.502 9.499.999 7 .5 8.5-.03.879a71.72 71.72 0 0 1-5.902 26.121 46.036 46.036 0 0 1-16.52 16.648l-6.548 3.851 10.483-10.567a52.996 52.996 0 0 0 13.518-23.432l.26-1.45a69.875 69.875 0 0 0-.26-26.05l-.392-2.22a74.246 74.246 0 0 0-3.274-12.28 44.21 44.21 0 0 0-3.788-9.556Z"/><path fill="#FACBBC" d="M572.608 420.591c-.997-.606-2.445-1.974-2.88-1.675-5.354 3.677-9.697 1.268-13.945-2.059-2.547 2.408-1.949.381-4.496 2.789-.108 1.524-7.892 8.959-8 10.483.403.492 3.26 3.5 5.5 1.982.664.652 1.594-.677 2.255 0l.59.351.543.056c9.928 1.852 13.902-7.127 20.436-11.953l-.003.026Z"/><path fill="#FACBBC" d="M592.078 427.714c-1.553-2.11-8.912-5.519-10.681-5.685-6.106-.641-7.181-.124-13.351 0-.509.01-1.154 0-1.773.683-1.985 2.192-4.293 4.033-5.652 6.371-3.15 5.44-1.467 8.212 4.962 7.529 3.516-.372 7.13-.95 10.495-2.398 3.452-1.468 12.57-4.969 16-6.5Z"/><path fill="#4B224B" d="M577.298 421.128c-8.175.166-11.417-.641-9.419 5.858 3.168-2.03 6.251-3.828 9.419-5.858Z"/><path stroke="#4D2554" stroke-width="4" d="M556.865 435.016a25.066 25.066 0 0 0 20.109.007l6.839-2.992a8.146 8.146 0 0 1 3.208-.684c6.807-.049 10.557-7.929 6.302-13.243l-.99-1.236a8.916 8.916 0 0 0-6.412-3.327l-16.024-.987a10.782 10.782 0 0 0-4.122.55l-15.559 5.27c-1.184.401-1.47 1.945-.508 2.743a1.598 1.598 0 0 1-.115 2.546l-9.835 6.775 2.344 1.356a16.27 16.27 0 0 0 16.603-.189l11.374-8.219-9.239 6.627a11.667 11.667 0 0 0-3.975 5.003Z"/><path fill="#DBF8FF" d="M183.971 188.99c-5.459-4.038-10.031-1.995-10.268-2.487-.436-.929 2.911-2.017-1.862-8.061 6.558.952 7.008-4.26 8.186-4.44.514-.079.342 5.312 7.247 5.479.74 1.123-5.731 2.733-3.303 9.509ZM38.97 85.99c-5.458-4.039-10.03-1.996-10.267-2.487-.436-.93 2.91-2.017-1.862-8.061 6.558.951 7.008-4.26 8.186-4.44.514-.08.342 5.311 7.247 5.479.74 1.123-5.731 2.733-3.303 9.509Z"/><path fill="#FFFEED" d="M742.969 225.209c-.23 1.189-.554 2.385-.791 3.565-.87 4.285-1.297 4.903-1.581 5.94-2.412-2.724-10.904-21.916-11.86-22.772-1.716-1.537-3.503.555-5.14.99-2.356.626-4.751 1.473-7.116 1.98-2.885.618-8.713 1.727-11.464 1.981-1.068.103-6.602.578-6.919.396-.577-.658.712-2.123 1.384-3.169.229-.356 3.013-3.635 5.139-6.732.752-1.093 1.629-1.996 2.372-3.169.593-.942 1.424-1.774 1.977-2.772.482-.871 3.123-5.418 3.163-5.743.19-1.679-1.613-4.522-2.372-6.138-3.028-6.44-8.199-11.161-12.058-17.03 4.286.19 24.376 6.392 25.697 6.337 2.04-.087 3.629-3.359 4.546-4.753 1.415-2.138 1.415-2.875 1.977-3.96 2.617-5.046 4.538-10.305 6.918-15.446 2.23 2.472 9.124 23.177 10.279 23.763.972.499 18.62-4.079 21.545-3.763.941 1.236-16.058 18.353-14.232 24.159.396 1.259 12.082 16.348 11.86 17.426-.324 1.623-17.655-4.341-20.359-3.367-2.641.951-2.42 9.466-2.965 12.277ZM334.956 151.16c-.194 1.069-.468 2.146-.668 3.208-.735 3.856-1.096 4.412-1.337 5.346-2.038-2.452-9.214-19.725-10.022-20.495-1.45-1.383-2.96.499-4.343.891-1.991.564-4.016 1.326-6.014 1.783-2.439.556-7.363 1.554-9.688 1.782-.902.092-5.58.52-5.847.356-.488-.591.602-1.91 1.17-2.851.193-.321 2.545-3.272 4.343-6.06.634-.983 1.376-1.796 2.004-2.851.501-.849 1.203-1.597 1.671-2.495.407-.784 2.639-4.876 2.672-5.169.161-1.511-1.363-4.07-2.004-5.524-2.559-5.796-6.929-10.045-10.19-15.327 3.622.171 20.6 5.753 21.716 5.703 1.723-.078 3.067-3.023 3.842-4.277 1.196-1.925 1.196-2.588 1.67-3.565 2.212-4.54 3.835-9.274 5.846-13.9 1.885 2.224 7.711 20.858 8.687 21.385.822.45 15.735-3.671 18.207-3.386.795 1.112-13.57 16.518-12.027 21.743.334 1.133 10.21 14.714 10.023 15.683-.274 1.461-14.92-3.906-17.206-3.03-2.231.856-2.044 8.519-2.505 11.05Z"/><path fill="#C9E1FB" d="M145.58 91.299c-.161.801-.389 1.609-.556 2.405-.613 2.893-.914 3.31-1.114 4.01-1.698-1.839-7.678-14.793-8.352-15.37-1.208-1.038-2.467.373-3.619.667-1.66.423-3.347.995-5.012 1.337-2.032.417-6.136 1.166-8.073 1.337-.752.07-4.65.39-4.872.267-.407-.444.501-1.433.974-2.139.161-.24 2.121-2.454 3.619-4.544.529-.738 1.147-1.348 1.671-2.139.417-.636 1.002-1.197 1.392-1.871.339-.588 2.199-3.657 2.227-3.876.133-1.134-1.136-3.053-1.671-4.144-2.132-4.347-5.774-7.533-8.491-11.495 3.018.128 17.166 4.315 18.096 4.277 1.437-.059 2.556-2.267 3.202-3.208.997-1.443.997-1.94 1.392-2.673 1.843-3.406 3.196-6.956 4.872-10.426 1.57 1.669 6.426 15.644 7.239 16.04.684.337 13.112-2.753 15.173-2.54.662.834-11.309 12.388-10.023 16.307.278.85 8.508 11.035 8.352 11.763-.228 1.096-12.433-2.93-14.338-2.273-1.859.642-1.703 6.39-2.088 8.288Z"/><path fill="#C9E1FB" stroke="#F2F1D2" d="M934.971 405.457c-.791.286-1.272 1.092-1.589 1.957-.328.895-.537 2.009-.686 3.141a64.555 64.555 0 0 0-.313 3.218l-.011.141c-.085 1.054-.159 1.935-.27 2.507v.001l3.039-10.495m-.17-.47.17.47m-.17-.47.17.47m-.17-.47c.405-.147.994-.144 1.622-.087.656.06 1.449.19 2.319.363 1.708.338 3.762.849 5.746 1.342l.116.029c2.029.504 3.973.985 5.426 1.254.73.135 1.309.211 1.702.216.046 0 .087 0 .124-.002m-16.885-2.645c1.151-.416 5.387.637 9.403 1.635 4.089 1.016 7.948 1.975 8.089 1.269.11-.541-3.239-5.169-6.128-9.161-2.079-2.872-3.92-5.415-4.062-5.869m9.583 14.771c.027.055.05.104.068.147.026.06.039.097.043.115l.001.003m-.112-.265a.979.979 0 0 0 .239-.029l.013-.005s-.104.045-.135.192l-.001.003a.32.32 0 0 0-.004.104m-.112-.265c-.05-.1-.115-.22-.196-.36a30.756 30.756 0 0 0-1.076-1.69c-.915-1.36-2.158-3.102-3.423-4.855l-1.23-1.701c-.837-1.157-1.638-2.263-2.303-3.199a71.122 71.122 0 0 1-1.228-1.77 15.333 15.333 0 0 1-.384-.603 2.36 2.36 0 0 1-.22-.443m10.172 14.886a.032.032 0 0 1 .001.007l-.001-.007Zm-10.172-14.886.477-.15m-.477.15c-.238-.759-.155-1.647.104-2.574.261-.934.718-1.962 1.295-3.032 1.155-2.139 2.827-4.512 4.507-6.741.98-1.3 1.984-2.578 2.89-3.732.635-.809 1.223-1.558 1.721-2.21.615-.806 1.1-1.472 1.405-1.965.053-.086.099-.164.138-.234l-11.583 20.338m-.477.15v-.001l.477-.149m-40.758 4.611c-.356.563-.747 1.054-1.135 1.541-.309.388-.617.774-.903 1.192-1.308 1.912-2.905 3.905-3.779 4.996-.347.433-.58.724-.636.811m6.453-8.54 8.152 9.223m-8.152-9.223c.226-.36.492-.702.759-1.045.336-.432.674-.867.939-1.346l-1.698 2.391Zm-6.453 8.54c-.115.179-.251.372-.39.571-.564.805-1.197 1.707-.799 2.162m1.189-2.733.421.27c-.121.188-.265.393-.405.593l-.105.151c-.177.253-.343.498-.475.727a2.12 2.12 0 0 0-.234.527m.798-2.268.421.27c-.001 0-.001 0 0 0l.01-.015.03-.041.103-.134c.086-.109.201-.254.342-.429l.12-.149c.263-.329.594-.742.963-1.21.853-1.082 1.915-2.467 2.839-3.817.275-.401.57-.772.881-1.162l.119-.149c.35-.441.713-.906 1.048-1.437l.001-.001c.211-.337.46-.658.73-1.004l.103-.133c.301-.389.62-.81.879-1.278.1-.181.306-.544.563-.996.276-.485.611-1.075.936-1.654.312-.555.614-1.099.841-1.522.113-.212.209-.397.279-.541.035-.071.066-.138.09-.195l.001-.002a.875.875 0 0 0 .066-.224v-.005c.052-.456-.034-.954-.174-1.438-.143-.489-.353-1-.582-1.496-.23-.496-.484-.988-.719-1.436l-.072-.137a30.943 30.943 0 0 1-.535-1.055c-1.326-2.832-3.117-5.275-4.972-7.626-.42-.532-.842-1.058-1.263-1.583-1.224-1.527-2.439-3.041-3.553-4.645.934.152 2.212.431 3.701.793 2.146.522 4.679 1.203 7.137 1.879 1.039.286 2.066.571 3.044.842 1.332.37 2.572.714 3.63 1.001.919.249 1.706.456 2.301.6.297.071.551.129.751.167.181.035.372.066.511.061.573-.025 1.083-.273 1.52-.605.437-.332.828-.768 1.171-1.219.46-.603.883-1.306 1.217-1.861.151-.251.284-.471.394-.639.625-.947.943-1.595 1.168-2.13.085-.203.151-.375.212-.533.107-.278.198-.513.345-.798v-.001l-.444-.229m-27.342 40.649c.271.157 5.027-.253 5.944-.342 2.364-.219 7.37-1.175 9.85-1.708m-15.794 2.05.376-.33.002.004-.001-.005a.312.312 0 0 1 .008-.109l.006-.025m-.391.465.25-.433c-.033-.019-.06-.029-.073-.034l-.029-.008-.004-.001.013.002c.029.003.078.006.15.008l.084.001m15.403-1.585-.105-.489h-.001l.106.489Zm-15.403 1.585 33.231-53.04-.252.555a5.733 5.733 0 0 0-.318-.51 191.302 191.302 0 0 0-2.054 4.745c-1.146 2.714-2.291 5.424-3.656 8.066m0 0c-.159.308-.265.583-.38.879-.234.605-.502 1.298-1.318 2.537l1.698-3.416Zm-.365 36.093c-.093-.152-.205-.325-.32-.428l11.214 14.89-.49-.099c-.489 2.419-.805 3.442-1.039 4.131a19.89 19.89 0 0 1-.398-.651 56.392 56.392 0 0 1-1.339-2.446c-.984-1.886-2.113-4.192-3.206-6.454l-1.114-2.314a521.535 521.535 0 0 0-1.866-3.856 74.8 74.8 0 0 0-1.066-2.105 14.51 14.51 0 0 0-.376-.668Z"/><path fill="#FFF2FE" stroke="#F2F1D2" d="M135.971 440.457c-.791.286-1.272 1.092-1.589 1.957-.328.895-.537 2.009-.686 3.141a64.555 64.555 0 0 0-.313 3.218l-.011.141c-.085 1.054-.159 1.935-.27 2.507v.001l3.039-10.495m-.17-.47.17.47m-.17-.47.17.47m-.17-.47c.405-.147.994-.144 1.622-.087.656.06 1.449.19 2.319.363 1.708.338 3.762.849 5.746 1.342l.116.029c2.029.504 3.973.985 5.426 1.254.73.135 1.309.211 1.702.216.046 0 .087 0 .124-.002m-16.885-2.645c1.151-.416 5.387.637 9.403 1.635 4.089 1.016 7.948 1.975 8.089 1.269.11-.541-3.239-5.169-6.128-9.161-2.079-2.872-3.92-5.415-4.062-5.869m9.583 14.771c.027.055.05.104.068.147.026.06.039.097.043.115l.001.003m-.112-.265a.979.979 0 0 0 .239-.029l.013-.005s-.104.045-.135.192l-.001.003a.32.32 0 0 0-.004.104m-.112-.265c-.05-.1-.115-.22-.196-.36a30.756 30.756 0 0 0-1.076-1.69c-.915-1.36-2.158-3.102-3.423-4.855l-1.23-1.701c-.837-1.157-1.638-2.263-2.303-3.199a71.122 71.122 0 0 1-1.228-1.77 15.333 15.333 0 0 1-.384-.603 2.36 2.36 0 0 1-.22-.443m10.172 14.886.001.007-.001-.007Zm-10.172-14.886.477-.15m-.477.15c-.238-.759-.155-1.647.104-2.574.261-.934.718-1.962 1.295-3.032 1.155-2.139 2.827-4.512 4.507-6.741.98-1.3 1.984-2.578 2.89-3.732.635-.809 1.223-1.558 1.721-2.21.615-.806 1.1-1.472 1.405-1.965.053-.086.099-.164.138-.234l-11.583 20.338m-.477.15v-.001l.477-.149m-40.758 4.611c-.356.563-.747 1.054-1.135 1.541-.309.388-.617.774-.903 1.192-1.308 1.912-2.905 3.905-3.78 4.996-.346.433-.58.724-.635.811m6.453-8.54 8.152 9.223m-8.152-9.223c.226-.36.492-.702.759-1.045.336-.432.674-.867.939-1.346l-1.698 2.391Zm-6.453 8.54c-.115.179-.25.372-.39.571-.564.805-1.197 1.707-.8 2.162m1.19-2.733.42.27c-.12.188-.264.393-.404.593l-.105.151c-.177.253-.343.498-.475.727a2.146 2.146 0 0 0-.234.527m.798-2.268.42.27.01-.015.031-.041.103-.134c.086-.109.201-.254.342-.429l.12-.149c.263-.329.594-.742.963-1.21.853-1.082 1.915-2.467 2.839-3.817.275-.401.57-.772.881-1.162l.119-.149c.35-.441.713-.906 1.048-1.437l.001-.001c.211-.337.46-.658.73-1.004l.103-.133c.301-.389.62-.81.879-1.278.1-.181.306-.544.563-.996.276-.485.611-1.075.936-1.654.312-.555.614-1.099.841-1.522.113-.212.209-.397.279-.541.035-.071.066-.138.09-.195l.001-.002a.875.875 0 0 0 .066-.224v-.005c.052-.456-.034-.954-.174-1.438-.143-.489-.353-1-.582-1.496-.23-.496-.484-.988-.719-1.436l-.072-.137a30.943 30.943 0 0 1-.535-1.055c-1.326-2.832-3.117-5.275-4.972-7.626-.42-.532-.842-1.058-1.263-1.583-1.224-1.527-2.439-3.041-3.553-4.645.934.152 2.212.431 3.701.793 2.146.522 4.679 1.203 7.137 1.879 1.039.286 2.066.571 3.044.842 1.332.37 2.572.714 3.63 1.001.919.249 1.706.456 2.301.6.297.071.551.129.751.167.181.035.372.066.511.061.573-.025 1.083-.273 1.52-.605.437-.332.828-.768 1.171-1.219.46-.603.883-1.306 1.217-1.861.151-.251.284-.471.394-.639.625-.947.943-1.595 1.168-2.13.085-.203.151-.375.212-.533.107-.278.198-.513.345-.798v-.001l-.444-.229m-27.342 40.649c.271.157 5.027-.253 5.944-.342 2.364-.219 7.37-1.175 9.85-1.708m-15.794 2.05.376-.33.002.004v-.005a.312.312 0 0 1 .007-.109l.006-.025m-.391.465.25-.433c-.033-.019-.06-.029-.073-.034l-.029-.008-.004-.001.013.002c.029.003.078.006.15.008l.084.001m15.403-1.585-.105-.489h-.001l.106.489Zm-15.403 1.585 33.231-53.04-.252.555a5.733 5.733 0 0 0-.318-.51 191.302 191.302 0 0 0-2.054 4.745c-1.146 2.714-2.291 5.424-3.656 8.066m0 0c-.159.308-.265.583-.38.879-.234.605-.502 1.298-1.318 2.537l1.698-3.416Zm-.365 36.093c-.093-.152-.205-.325-.32-.428l11.214 14.89-.49-.099c-.489 2.419-.805 3.442-1.039 4.131a19.89 19.89 0 0 1-.398-.651 56.392 56.392 0 0 1-1.339-2.446c-.984-1.886-2.113-4.192-3.206-6.454l-1.114-2.314a521.535 521.535 0 0 0-1.866-3.856 74.8 74.8 0 0 0-1.066-2.105 14.51 14.51 0 0 0-.376-.668Z"/><path fill="url(#l)" stroke="#EDE9CE" d="m1004.84 704.771 21.86-2.057v335.996H632.703v-17.14a48.95 48.95 0 0 1 28.911-44.659l7.579-3.4a69.086 69.086 0 0 0 39.009-47.368l1.467-6.301a82.108 82.108 0 0 1 6.603-18.25l7.359-14.646c11.251-22.393 29.773-40.53 52.342-51.424 20.589-9.938 43.888-13.444 66.473-9.896l10.499 1.649c3.965.623 8.001.657 11.977.101l4.165-.582c15.229-2.129 27.298-13.926 29.772-29.103.323-1.981.816-3.93 1.472-5.827l2.385-6.894c15.377-44.44 55.304-75.795 102.124-80.199Z"/><path fill="url(#m)" stroke="#F2F1D2" d="M433.636 768.944h.001c28.125-1.534 47.333 3.275 60.35 12.002 13.006 8.72 19.898 21.397 23.302 35.75 3.406 14.365 3.311 30.38 2.356 45.725-.353 5.674-.825 11.265-1.279 16.644-.77 9.131-1.489 17.651-1.489 24.933v.032l.004.031c.948 7.498 2.629 12.502 4.974 15.73 2.366 3.259 5.381 4.671 8.87 5.043 3.454.369 7.383-.28 11.609-1.119.736-.147 1.481-.299 2.236-.452 3.605-.735 7.421-1.513 11.415-1.9 24.145-2.338 42.9 1.353 57.705 8.796 14.805 7.445 25.696 18.661 34.081 31.431 8.388 12.775 14.262 27.094 19.036 40.73 1.948 5.56 3.716 11.02 5.398 16.22 2.337 7.22 4.508 13.93 6.763 19.67H50.74c-16.595-11.36-25.204-21.49-29.618-31.12-4.425-9.656-4.662-18.865-4.415-28.452.031-1.191.07-2.388.108-3.592.271-8.477.554-17.323-1.697-26.969-2.576-11.037-8.459-23.098-21.39-36.936l-.148-.158h-.026a1.965 1.965 0 0 1-.05-.131c-.093-.267-.19-.69-.289-1.278-.195-1.168-.379-2.897-.55-5.118-.342-4.437-.632-10.784-.879-18.415-.492-15.26-.81-35.627-1.02-56.05-.212-20.422-.317-40.895-.388-56.368l-.028-6.307c-.022-4.979-.04-9.229-.06-12.518-.013-2.302-.026-4.134-.04-5.417a150.07 150.07 0 0 0-.022-1.505 26.228 26.228 0 0 0-.012-.418C3.88 733.287 16.22 726.275 27.1 723.651c10.915-2.633 20.41-.863 28.372 2.598 7.97 3.465 14.403 8.624 19.175 12.766.808.701 1.572 1.377 2.289 2.01 1.388 1.228 2.6 2.299 3.614 3.101.77.609 1.459 1.09 2.053 1.373.569.271 1.201.432 1.742.132.398-.22.74-.65 1.053-1.152.324-.518.66-1.188 1.022-1.975.38-.825.802-1.814 1.276-2.923.421-.986.883-2.067 1.392-3.213 2.179-4.911 5.31-11.244 10.246-17.606 9.858-12.703 26.957-25.572 58.193-27.32 51.022-2.856 73.567 21.927 78.156 32 4.85 10.677 4.837 18.137 3.635 24.13-.483 2.405-1.157 4.574-1.801 6.646-.164.527-.325 1.048-.481 1.564-.766 2.534-1.398 4.973-1.398 7.496l.974.16c1.649-4.878 5.941-12.044 12.13-19.396 6.182-7.344 14.226-14.835 23.348-20.38 11.783-7.162 21.274-11.98 31.892-15.013 10.619-3.033 22.395-4.289 38.756-4.289 16.321 0 28.183 2.915 37.929 7.676 9.753 4.764 17.418 11.39 25.342 18.868 11.826 11.161 16.141 20.695 18.731 27.383.27.696.524 1.369.766 2.011.337.893.652 1.728.957 2.487.528 1.312 1.05 2.456 1.657 3.386.61.935 1.319 1.674 2.231 2.156.913.483 1.985.685 3.285.617ZM-6.392 911.083l-.004-.005.004.005Z"/><path fill="url(#n)" stroke="#EDE9CE" d="m63.97 796.316-7.417 2.691a90.826 90.826 0 0 0-59.85 85.38v145.323h484c0-8.25-4.844-15.74-12.374-19.12l-17.262-7.75a31.474 31.474 0 0 1-18.58-28.709v-26.48a37.953 37.953 0 0 0-17.825-32.175l-21.207-13.265-2.352-1.276a55.21 55.21 0 0 1-26.629-32.922 55.202 55.202 0 0 0-9.695-18.693l-2.594-3.272a76.703 76.703 0 0 0-24.562-20.319l-6.431-3.362a80.818 80.818 0 0 0-49.426-8.325l-5.538.828a97.984 97.984 0 0 0-24.331 6.94l-16.244 7.008a18.353 18.353 0 0 1-17.201-1.414l-25.956-16.687a123.42 123.42 0 0 0-17.864-9.512l-4.756-2.051a130.115 130.115 0 0 0-95.907-2.838Z"/></g><defs><linearGradient id="b" x1="616.203" x2="539.203" y1="-253.286" y2="1018.71" gradientUnits="userSpaceOnUse"><stop stop-color="#592069"/><stop offset=".685" stop-color="#E44EAA"/><stop offset=".98" stop-color="#E7978F"/></linearGradient><linearGradient id="c" x1="673.703" x2="673.703" y1="666.714" y2="1030.71" gradientUnits="userSpaceOnUse"><stop stop-color="#F7A993"/><stop offset="1" stop-color="#C77386"/></linearGradient><linearGradient id="d" x1="242.203" x2="125.703" y1="491.214" y2="814.214" gradientUnits="userSpaceOnUse"><stop stop-color="#ECAFB7"/><stop offset="1" stop-color="#493FA5"/></linearGradient><linearGradient id="e" x1="844.599" x2="1060.7" y1="574.714" y2="806.959" gradientUnits="userSpaceOnUse"><stop stop-color="#BE5A90"/><stop offset=".875" stop-color="#804666"/></linearGradient><linearGradient id="f" x1="888.736" x2="920.196" y1="481.711" y2="588.075" gradientUnits="userSpaceOnUse"><stop stop-color="#9A9CA8"/><stop offset=".45" stop-color="#706B99"/><stop offset="1" stop-color="#66526E"/></linearGradient><linearGradient id="g" x1="879.732" x2="765.742" y1="470.903" y2="417.084" gradientUnits="userSpaceOnUse"><stop stop-color="#9A9CA8"/><stop offset=".45" stop-color="#706B99"/><stop offset="1" stop-color="#9A9CA8"/></linearGradient><linearGradient id="h" x1="686.078" x2="589.078" y1="402.497" y2="402.497" gradientUnits="userSpaceOnUse"><stop stop-color="#8C8495"/><stop offset=".5" stop-color="#E5E5DC"/><stop offset="1" stop-color="#938C99"/></linearGradient><linearGradient id="i" x1="725.465" x2="683.937" y1="426.955" y2="413.662" gradientUnits="userSpaceOnUse"><stop stop-color="#9A9CA8"/><stop offset="1" stop-color="#8C8495"/></linearGradient><linearGradient id="j" x1="675.486" x2="637.082" y1="598.268" y2="813.714" gradientUnits="userSpaceOnUse"><stop offset=".635" stop-color="#FACBBC"/><stop offset="1" stop-color="#D1B9B9"/></linearGradient><linearGradient id="k" x1="521.876" x2="539.288" y1="339.188" y2="429.24" gradientUnits="userSpaceOnUse"><stop stop-color="#49204F"/><stop offset=".445" stop-color="#66526E"/><stop offset="1" stop-color="#4B2451"/></linearGradient><linearGradient id="l" x1="829.703" x2="829.703" y1="784.666" y2="1038.71" gradientUnits="userSpaceOnUse"><stop stop-color="#4A366E"/><stop offset="1" stop-color="#35224B"/></linearGradient><linearGradient id="m" x1="558.953" x2="352.858" y1="751.304" y2="1017.07" gradientUnits="userSpaceOnUse"><stop offset=".12" stop-color="#D087A9"/><stop offset="1" stop-color="#6A43A6"/></linearGradient><linearGradient id="n" x1="238.703" x2="238.703" y1="789.627" y2="1029.71" gradientUnits="userSpaceOnUse"><stop stop-color="#533E7F"/><stop offset="1" stop-color="#30154E"/></linearGradient></defs></svg>